<svg width="559" height="508" viewBox="0 0 559 508" fill="none" xmlns="http://www.w3.org/2000/svg">
<path d="M559 388.523H0V388.777H559V388.523Z" fill="#EBEBEB"/>
<path d="M264.966 343.208H49.0914C47.4002 343.205 45.7793 342.593 44.5846 341.505C43.3898 340.417 42.7187 338.943 42.7188 337.406V61.6334C42.7335 60.1053 43.411 58.6443 44.6042 57.5676C45.7974 56.4908 47.4098 55.8854 49.0914 55.8828H264.966C266.659 55.8828 268.283 56.494 269.48 57.582C270.677 58.67 271.35 60.1456 271.35 61.6842V337.406C271.35 338.945 270.677 340.421 269.48 341.508C268.283 342.596 266.659 343.208 264.966 343.208ZM49.0914 56.086C47.4743 56.0887 45.9246 56.6743 44.7822 57.7144C43.6398 58.7544 42.9982 60.1639 42.9983 61.6334V337.406C42.9982 338.876 43.6398 340.285 44.7822 341.325C45.9246 342.365 47.4743 342.951 49.0914 342.954H264.966C266.584 342.951 268.135 342.366 269.279 341.326C270.423 340.286 271.067 338.877 271.07 337.406V61.6334C271.067 60.1629 270.423 58.7535 269.279 57.7138C268.135 56.674 266.584 56.0887 264.966 56.086H49.0914Z" fill="#EBEBEB"/>
<path d="M506.801 343.208H290.915C289.223 343.205 287.601 342.593 286.404 341.505C285.208 340.418 284.534 338.944 284.531 337.406V61.6334C284.549 60.1044 285.229 58.6434 286.424 57.5669C287.619 56.4905 289.232 55.8854 290.915 55.8828H506.801C508.48 55.8881 510.09 56.4947 511.281 57.5711C512.472 58.6476 513.148 60.1071 513.162 61.6334V337.406C513.162 338.941 512.493 340.414 511.3 341.501C510.108 342.589 508.49 343.202 506.801 343.208ZM290.915 56.086C289.297 56.0887 287.746 56.674 286.602 57.7138C285.458 58.7535 284.814 60.1629 284.811 61.6334V337.406C284.814 338.877 285.458 340.286 286.602 341.326C287.746 342.366 289.297 342.951 290.915 342.954H506.801C508.419 342.951 509.97 342.366 511.114 341.326C512.258 340.286 512.902 338.877 512.905 337.406V61.6334C512.902 60.1629 512.258 58.7535 511.114 57.7138C509.97 56.674 508.419 56.0887 506.801 56.086H290.915Z" fill="#EBEBEB"/>
<path d="M502.99 404.867H473.922V405.121H502.99V404.867Z" fill="#EBEBEB"/>
<path d="M398.039 407.633H347.695V407.887H398.039V407.633Z" fill="#EBEBEB"/>
<path d="M472.799 395.438H404.836V395.692H472.799V395.438Z" fill="#EBEBEB"/>
<path d="M80.1476 397.148H58.6484V397.402H80.1476V397.148Z" fill="#EBEBEB"/>
<path d="M151.924 397.148H90.1094V397.402H151.924V397.148Z" fill="#EBEBEB"/>
<path d="M272.945 401.438H189.688V401.692H272.945V401.438Z" fill="#EBEBEB"/>
<path d="M311.311 86.7656H86.6484V233.334H311.311V86.7656Z" fill="#FAFAFA"/>
<path d="M146.883 233.336L185.409 86.7578H228.296L189.769 233.336H146.883Z" fill="white"/>
<path d="M230.641 233.336L269.167 86.7578H284.808L246.281 233.336H230.641Z" fill="white"/>
<path d="M132.078 233.336L170.616 86.7578H176.485L137.959 233.336H132.078Z" fill="white"/>
<path d="M321.985 81.7188H75.9359C75.8038 81.7188 75.6729 81.7424 75.5508 81.7884C75.4288 81.8343 75.3178 81.9017 75.2244 81.9866C75.131 82.0715 75.0569 82.1723 75.0063 82.2832C74.9557 82.3942 74.9297 82.5131 74.9297 82.6332C74.9297 82.7528 74.9558 82.8712 75.0065 82.9815C75.0572 83.0919 75.1315 83.1921 75.2251 83.2762C75.3187 83.3603 75.4297 83.4267 75.5517 83.4715C75.6737 83.5163 75.8043 83.5387 75.9359 83.5374H321.985C322.25 83.5374 322.505 83.4425 322.693 83.2732C322.881 83.1039 322.989 82.8739 322.992 82.6332C322.989 82.3915 322.882 82.1604 322.694 81.9895C322.506 81.8186 322.251 81.7214 321.985 81.7188Z" fill="#E0E0E0"/>
<path d="M195.177 233.648H204.758L204.758 86.4503H195.177L195.177 233.648Z" fill="#F0F0F0"/>
<path d="M204.763 233.648H205.836L205.836 86.4503H204.763L204.763 233.648Z" fill="#E0E0E0"/>
<path d="M85.0938 158.848V161.266H312.864V158.848H85.0938Z" fill="#F0F0F0"/>
<path d="M312.864 232.318V85.3438H85.0938V232.318V234.696H312.864V232.318ZM87.7546 232.318V87.772H310.237V232.318H87.7546Z" fill="#F0F0F0"/>
<path d="M312.865 234.742H314.195V85.3495H312.865V234.742Z" fill="#E0E0E0"/>
<path opacity="0.5" d="M273.227 79.5078V322.941H329.384L319.087 79.5078H273.227Z" fill="#EBEBEB"/>
<path opacity="0.5" d="M234.258 79.5078V322.941H290.415L280.118 79.5078H234.258Z" fill="#EBEBEB"/>
<path opacity="0.5" d="M104.445 79.5078V322.941H69.8984L76.2375 79.5078H104.445Z" fill="#EBEBEB"/>
<path opacity="0.5" d="M128.421 79.5078V322.941H93.875L100.203 79.5078H128.421Z" fill="#EBEBEB"/>
<path d="M210.386 388.508H235.172L235.172 233.812H210.386L210.386 388.508Z" fill="#E6E6E6"/>
<path d="M219.114 388.52H210.383V359.117H228.26L219.114 388.52Z" fill="#F0F0F0"/>
<path d="M472.542 388.508H497.328V233.812H472.542V388.508Z" fill="#E6E6E6"/>
<path d="M210.383 380.492L480.156 380.492V233.822L210.383 233.822V380.492Z" fill="#F0F0F0"/>
<path d="M471.427 388.52H480.158V359.117H462.281L471.427 388.52Z" fill="#F0F0F0"/>
<path d="M391.219 245.966V367.297H471.189V245.966H391.219Z" fill="#E6E6E6"/>
<path d="M423.3 250.231H439.12C445.808 250.29 452.28 248.076 457.265 244.023H405.133C410.124 248.08 416.604 250.295 423.3 250.231Z" fill="#F0F0F0"/>
<path d="M305.289 245.966V367.297H385.26V245.966H305.289Z" fill="#E6E6E6"/>
<path d="M336.517 250.231H352.336C359.033 250.295 365.513 248.08 370.504 244.023H318.383C323.366 248.073 329.832 250.287 336.517 250.231Z" fill="#F0F0F0"/>
<path d="M219.359 245.966V367.297H299.33V245.966H219.359Z" fill="#E6E6E6"/>
<path d="M250.621 250.231H266.44C273.136 250.295 279.617 248.08 284.608 244.023H232.453C237.444 248.08 243.925 250.295 250.621 250.231Z" fill="#F0F0F0"/>
<path d="M487.451 205.75H405.289C405.289 205.75 406.038 224.993 429.594 231.343V233.822H463.134V231.343C486.724 224.993 487.451 205.75 487.451 205.75Z" fill="#E6E6E6"/>
<path d="M465.192 83.7656H357.719V188.353H465.192V83.7656Z" fill="#F0F0F0"/>
<path d="M465.203 188.336H468.758V83.7489H465.203V188.336Z" fill="#E0E0E0"/>
<path d="M447.018 92.7266H375.891V179.371H447.018V92.7266Z" fill="white"/>
<path d="M279.503 434.401C399.222 434.401 496.272 429.251 496.272 422.9C496.272 416.548 399.222 411.398 279.503 411.398C159.785 411.398 62.7344 416.548 62.7344 422.9C62.7344 429.251 159.785 434.401 279.503 434.401Z" fill="#F5F5F5"/>
<path d="M411.262 418.934L402.162 418.802L401.547 399.609L410.647 399.741L411.262 418.934Z" fill="#FF8B7B"/>
<path d="M401.846 413.33L411.785 413.472C411.963 413.475 412.134 413.534 412.269 413.64C412.404 413.746 412.494 413.891 412.523 414.051L413.842 421.427C413.873 421.609 413.86 421.795 413.803 421.971C413.747 422.148 413.649 422.311 413.516 422.45C413.383 422.588 413.218 422.699 413.033 422.773C412.847 422.847 412.647 422.884 412.444 422.88C408.856 422.779 403.69 422.514 399.185 422.443C393.919 422.372 398.067 422.565 391.896 422.443C388.161 422.382 387.345 418.938 388.933 418.654C396.133 417.333 396.502 415.87 399.621 413.909C400.278 413.51 401.056 413.307 401.846 413.33Z" fill="#2C3E54"/>
<path d="M376.055 170.855C375.272 173.659 374.367 176.209 373.427 178.861C372.488 181.513 371.437 184.073 370.342 186.664C368.111 191.92 365.447 197.014 362.37 201.904C361.99 202.534 361.554 203.144 361.129 203.763L360.481 204.688L360.168 205.155C360.067 205.298 359.877 205.521 359.743 205.704C358.589 207.198 357.212 208.538 355.651 209.687C352.829 211.724 349.625 213.28 346.193 214.279C343.08 215.21 339.863 215.823 336.601 216.108C335.013 216.27 333.425 216.331 331.849 216.352C330.241 216.373 328.632 216.316 327.03 216.179L326.852 209.961C332.144 208.998 337.274 207.41 342.112 205.237C344.176 204.283 346.062 203.042 347.702 201.559C348.345 200.947 348.901 200.264 349.357 199.527L349.536 199.242L349.771 198.836L350.24 198.023C350.542 197.484 350.866 197.007 351.146 196.387C353.546 191.797 355.662 187.089 357.485 182.285C358.446 179.857 359.329 177.398 360.235 174.939C361.141 172.481 361.957 169.941 362.751 167.594L376.055 170.855Z" fill="#FF8B7B"/>
<path d="M329.01 210.008L318.68 208.992L319.172 218.421C319.172 218.421 326.998 220.148 330.262 214.722L329.01 210.008Z" fill="#FF8B7B"/>
<path d="M310.17 213.172L312.082 217.236C312.239 217.565 312.496 217.846 312.823 218.046C313.15 218.246 313.533 218.356 313.927 218.364L319.17 218.475L318.678 209.047L311.646 210.561C311.349 210.627 311.07 210.75 310.829 210.922C310.589 211.095 310.392 211.312 310.252 211.56C310.112 211.807 310.032 212.08 310.018 212.358C310.004 212.636 310.056 212.914 310.17 213.172Z" fill="#FF8B7B"/>
<path opacity="0.2" d="M401.547 399.609L401.86 409.505L410.96 409.637L410.647 399.741L401.547 399.609Z" fill="black"/>
<path d="M366.821 160.372C361.935 165.95 357.485 176.628 355.641 182.724C361.063 190.924 371.684 189.491 371.684 189.491C371.684 189.491 380.471 183.172 383.345 175.612C386.218 168.053 375.452 150.507 366.821 160.372Z" fill="#2C3E54"/>
<path d="M423.258 161.546C425.416 175.831 422.14 194.413 424.622 221.49L375.945 224.294C367.09 189.943 366.14 175.526 365.201 166.047C365.022 164.202 365.498 162.354 366.558 160.773C367.618 159.192 369.207 157.96 371.093 157.258C382.563 152.94 402.24 152.3 415.757 154.464C417.673 154.768 419.432 155.618 420.781 156.891C422.13 158.164 422.998 159.794 423.258 161.546Z" fill="#2C3E54"/>
<path d="M387.735 171.047C385.597 171.035 383.492 171.522 381.62 172.461C379.749 173.401 378.174 174.761 377.047 176.412H399.653C398.213 174.785 396.402 173.463 394.344 172.537C392.286 171.61 390.031 171.102 387.735 171.047Z" fill="white"/>
<path d="M400.335 177.18H376.544C375.979 178.144 375.547 179.168 375.258 180.228H402.302C401.769 179.15 401.109 178.129 400.335 177.18Z" fill="white"/>
<path d="M402.795 181.203H375.012C374.839 182.109 374.756 183.027 374.766 183.946H403.678C403.467 183.011 403.171 182.094 402.795 181.203Z" fill="white"/>
<path d="M385.993 199.039H395.921C397.076 198.605 398.15 198.012 399.107 197.281H382.359C383.482 198.007 384.703 198.598 385.993 199.039Z" fill="white"/>
<path d="M379.855 195.266H401.197C401.709 194.628 402.154 193.948 402.528 193.234H378.055C378.598 193.952 379.199 194.631 379.855 195.266Z" fill="white"/>
<path d="M376.87 191.488H403.3C403.557 190.755 403.744 190.004 403.859 189.242H375.797C376.095 190.013 376.454 190.763 376.87 191.488Z" fill="white"/>
<path d="M403.9 185.219H374.832C374.827 185.303 374.827 185.388 374.832 185.473C374.92 186.229 375.066 186.98 375.268 187.718H403.99C404.021 186.969 403.991 186.218 403.9 185.473C403.906 185.388 403.906 185.303 403.9 185.219Z" fill="white"/>
<path d="M399.877 133.242L386.73 143.788C388.619 148.269 389.379 153.095 381.889 155.228C381.479 155.343 381.132 155.593 380.916 155.929C379.15 158.713 378.781 163.041 387.032 162.371C393.197 161.891 398.951 159.358 403.187 155.259C403.492 155 403.674 154.643 403.695 154.263C403.716 153.884 403.574 153.513 403.299 153.227C398.827 148.858 399.128 138.891 399.877 133.242Z" fill="#FF8B7B"/>
<path opacity="0.2" d="M394.514 137.539L386.688 143.787C387.178 144.842 387.552 145.938 387.806 147.059C390.936 146.521 394.983 143.473 395.039 140.78C395.106 139.679 394.927 138.576 394.514 137.539Z" fill="black"/>
<path d="M375.235 118.477C372.35 122.094 374.251 130.476 376.353 131.797C381.719 129.511 380.735 116.415 375.235 118.477Z" fill="#263238"/>
<path d="M400.113 124.012C400.113 132.211 400.493 137.007 396.2 141.477C389.749 148.193 378.379 145.115 375.718 137.088C373.326 129.864 373.806 117.672 382.426 113.893C384.305 113.038 386.394 112.639 388.493 112.732C390.591 112.825 392.628 113.409 394.405 114.426C396.183 115.443 397.643 116.86 398.642 118.539C399.642 120.218 400.149 122.103 400.113 124.012Z" fill="#FF8B7B"/>
<path d="M399.51 132.134C400.829 129.391 393.696 131.027 393.696 131.027C393.696 131.027 392.578 122.248 395.641 118.835C392.544 120.511 384.338 120.46 382.639 118.835C379.184 120.42 374.601 120.867 371.671 119.048C368.742 117.229 368.888 112.901 370.777 110.839C373.181 112.871 376.591 110.066 375.07 108.695C379.878 106.074 388.028 107.496 389.604 109C389.233 108.462 389.11 107.813 389.26 107.194C389.411 106.574 389.824 106.033 390.409 105.688C390.409 105.688 391.359 109.01 394.244 108.868C399.342 108.614 405.312 110.199 403.031 114.578C406.676 114.923 408.42 118.702 407.336 121.69C406.251 124.677 409.516 125.215 409.885 124.311C411.114 126.414 410.131 127.664 407.995 128.436C413.585 134.308 401.667 136.096 399.454 139.917C399.431 139.876 397.911 135.477 399.51 132.134Z" fill="#263238"/>
<path d="M404.874 131.756C403.907 133.633 402.169 135.092 400.033 135.82C397.193 136.764 395.561 134.519 396.176 131.989C396.724 129.703 398.87 126.462 401.766 126.615C404.661 126.767 406.037 129.449 404.874 131.756Z" fill="#FF8B7B"/>
<path d="M411.204 312.258C408.275 270.602 413.965 222.047 413.965 222.047L375.953 224.241C378.189 239.939 384.897 290.424 387.659 315.102C390.599 341.305 398.514 405.11 398.514 405.11L413.943 405.323C413.943 405.323 415.363 345.095 411.204 312.258Z" fill="#263238"/>
<path opacity="0.2" d="M410.923 307.761C410.923 307.212 410.867 306.674 410.834 306.125C409.894 287.37 410.521 267.771 411.448 252.227L409.101 253.578C399.106 267.04 405.523 292.369 411.057 310.271C411.012 309.438 410.957 308.594 410.923 307.761Z" fill="black"/>
<path d="M397.062 402.234L398.292 407.944L414.313 408.208L414.939 402.814L397.062 402.234Z" fill="#263238"/>
<path d="M387.123 127.37C387.123 128.031 386.81 128.6 386.329 128.63C385.848 128.661 385.423 128.143 385.379 127.472C385.334 126.801 385.692 126.243 386.173 126.212C386.653 126.182 387.078 126.7 387.123 127.37Z" fill="#263238"/>
<path d="M376.99 128.097C376.99 128.757 376.677 129.326 376.196 129.347C375.715 129.367 375.291 128.859 375.246 128.199C375.201 127.538 375.559 126.969 376.04 126.939C376.52 126.908 376.945 127.426 376.99 128.097Z" fill="#263238"/>
<path d="M380.937 127.789C380.184 129.879 379.12 131.865 377.773 133.692C378.298 133.986 378.887 134.172 379.499 134.239C380.111 134.305 380.731 134.251 381.318 134.078L380.937 127.789Z" fill="#FF5652"/>
<path d="M384.527 135.671C385.341 135.533 386.116 135.246 386.806 134.829C387.495 134.412 388.085 133.872 388.54 133.243C388.566 133.197 388.573 133.143 388.558 133.093C388.544 133.042 388.51 132.998 388.462 132.969C388.437 132.957 388.41 132.949 388.382 132.946C388.353 132.944 388.325 132.946 388.298 132.954C388.271 132.961 388.246 132.974 388.224 132.99C388.202 133.007 388.184 133.027 388.171 133.05C387.651 133.736 386.964 134.304 386.163 134.709C385.362 135.115 384.47 135.346 383.554 135.387C383.525 135.388 383.497 135.395 383.471 135.406C383.445 135.418 383.422 135.434 383.403 135.454C383.384 135.474 383.37 135.497 383.361 135.523C383.353 135.548 383.35 135.574 383.353 135.6C383.353 135.626 383.358 135.652 383.37 135.675C383.381 135.699 383.398 135.72 383.419 135.737C383.44 135.755 383.465 135.768 383.492 135.776C383.52 135.783 383.548 135.786 383.576 135.783C383.895 135.763 384.213 135.726 384.527 135.671Z" fill="#263238"/>
<path d="M389.434 123.272C389.507 123.26 389.573 123.228 389.624 123.18C389.67 123.149 389.707 123.109 389.734 123.064C389.762 123.019 389.779 122.969 389.784 122.917C389.789 122.866 389.783 122.814 389.765 122.765C389.747 122.716 389.718 122.67 389.68 122.632C389.246 122.152 388.692 121.774 388.063 121.53C387.435 121.286 386.751 121.183 386.069 121.23C385.957 121.245 385.855 121.298 385.784 121.38C385.713 121.461 385.679 121.563 385.689 121.667C385.696 121.717 385.714 121.767 385.742 121.811C385.77 121.856 385.807 121.895 385.852 121.926C385.897 121.957 385.948 121.98 386.003 121.993C386.057 122.006 386.114 122.009 386.17 122.002C386.718 121.966 387.267 122.05 387.771 122.248C388.275 122.446 388.719 122.752 389.065 123.14C389.11 123.188 389.167 123.226 389.231 123.249C389.296 123.272 389.366 123.28 389.434 123.272Z" fill="#263238"/>
<path d="M374.534 124.7C374.606 124.693 374.674 124.671 374.734 124.635C374.795 124.6 374.845 124.553 374.881 124.496C375.131 124.058 375.491 123.678 375.932 123.389C376.373 123.1 376.882 122.908 377.419 122.83C377.481 122.835 377.544 122.827 377.603 122.808C377.662 122.788 377.716 122.758 377.76 122.718C377.805 122.678 377.84 122.63 377.862 122.577C377.884 122.523 377.894 122.466 377.89 122.41C377.886 122.353 377.868 122.297 377.838 122.247C377.809 122.197 377.767 122.154 377.717 122.119C377.667 122.085 377.61 122.061 377.549 122.048C377.488 122.036 377.424 122.036 377.363 122.048C376.686 122.133 376.04 122.361 375.477 122.714C374.914 123.067 374.449 123.535 374.121 124.08C374.068 124.171 374.056 124.276 374.087 124.375C374.119 124.473 374.191 124.557 374.288 124.608C374.36 124.659 374.445 124.69 374.534 124.7Z" fill="#263238"/>
<path d="M461.562 419.527L452.439 419.406L448.18 400.203L457.291 400.335L461.562 419.527Z" fill="#FF8B7B"/>
<path d="M460.228 413.514L450.311 413.433C450.231 413.424 450.15 413.433 450.074 413.46C449.999 413.486 449.931 413.528 449.877 413.583C449.824 413.638 449.785 413.703 449.765 413.774C449.746 413.846 449.745 413.92 449.763 413.992L450.982 421.378C451.076 421.781 451.313 422.145 451.656 422.415C451.999 422.685 452.43 422.845 452.883 422.871C456.438 422.871 457.5 422.607 461.994 422.648C467.249 422.648 464.868 422.831 471.028 422.882C474.762 422.882 474.382 419.488 472.705 419.143C467.361 418.066 465.516 416.196 462.643 414.185C461.938 413.731 461.091 413.496 460.228 413.514Z" fill="#2C3E54"/>
<path opacity="0.2" d="M448.18 400.219L450.371 410.104L459.494 410.236L457.303 400.341L448.18 400.219Z" fill="black"/>
<path d="M443.045 311.648C436.695 273.985 431.183 236.312 424.643 221.438L392.422 223.287C392.422 223.287 410.545 287.823 419.802 313.944C424.274 341.376 446.511 405.801 446.511 405.801L460.978 405.222C460.978 405.222 449.44 349.311 443.045 311.648Z" fill="#263238"/>
<path d="M444.25 403.486L446.531 409.094L462.563 408.627L462.194 403.242L444.25 403.486Z" fill="#263238"/>
<path d="M425.191 164.453C425.706 165.195 426.086 165.774 426.511 166.424C426.936 167.074 427.282 167.684 427.629 168.324C428.367 169.594 429.071 170.874 429.764 172.154C431.117 174.752 432.322 177.41 433.375 180.12C434.46 182.854 435.356 185.646 436.058 188.482L436.573 190.635L436.986 192.83C437.132 193.551 437.21 194.303 437.299 195.045L437.434 196.162L437.501 196.721V196.853V197.28C437.571 198.498 437.346 199.716 436.841 200.846C436.569 201.468 436.236 202.066 435.846 202.634C435.254 203.482 434.572 204.274 433.811 205.002C432.58 206.165 431.253 207.242 429.842 208.222C427.308 209.967 424.653 211.562 421.893 212.998C416.607 215.774 411.098 218.185 405.414 220.211L402.172 214.745C406.845 211.606 411.63 208.456 416.069 205.215C418.305 203.61 420.451 201.944 422.329 200.287C423.193 199.544 423.989 198.739 424.711 197.88C424.935 197.6 425.133 197.305 425.303 196.996C425.382 196.853 425.203 196.803 425.08 197.697C425.08 197.778 425.08 197.93 425.08 198.062V198.235V198.123L424.979 197.686L424.778 196.803C424.655 196.213 424.532 195.624 424.353 195.035L423.861 193.277L423.291 191.509C422.497 189.162 421.592 186.825 420.552 184.509C419.512 182.192 418.383 179.886 417.198 177.62C416.594 176.493 415.979 175.355 415.331 174.258L414.347 172.612L413.419 171.088L425.191 164.453Z" fill="#FF8B7B"/>
<path d="M405.495 213.562L396.305 214.416L400.251 223.722C400.251 223.722 408.48 222.036 408.29 217.931L405.495 213.562Z" fill="#FF8B7B"/>
<path d="M390.065 221.119L392.066 224.167C392.454 224.755 393.062 225.195 393.779 225.408C394.496 225.621 395.273 225.592 395.968 225.325L400.25 223.73L396.304 214.383L391.306 217.096C390.932 217.284 390.603 217.538 390.337 217.843C390.072 218.148 389.876 218.497 389.761 218.872C389.645 219.246 389.613 219.637 389.665 220.023C389.717 220.409 389.853 220.781 390.065 221.119Z" fill="#FF8B7B"/>
<path d="M399.664 168.902C402.336 175.495 411.839 184.142 416.624 188.632C427.245 188.51 434.355 178.991 434.355 178.991C434.355 178.991 429.525 162.287 420.09 156.252C412.99 151.721 394.957 157.238 399.664 168.902Z" fill="#2C3E54"/>
<path d="M380.116 307.359H159.602V325.973H380.116V307.359Z" fill="#263238"/>
<path opacity="0.2" d="M380.12 307.359H317.523V325.973H380.12V307.359Z" fill="black"/>
<path d="M172.805 325.977H159.602V426.489H172.805V325.977Z" fill="#263238"/>
<path opacity="0.2" d="M172.794 331.189L159.602 328.588V325.977H172.794V331.189Z" fill="black"/>
<path d="M380.133 325.977H366.93V426.489H380.133V325.977Z" fill="#263238"/>
<path opacity="0.2" d="M380.133 325.977H366.93V426.489H380.133V325.977Z" fill="black"/>
<path d="M330.727 325.977H317.523V426.489H330.727V325.977Z" fill="#263238"/>
<path opacity="0.2" d="M330.727 331.189L317.523 328.588V325.977H330.727V331.189Z" fill="black"/>
<path d="M214.133 325.977H200.93V426.489H214.133V325.977Z" fill="#263238"/>
<path opacity="0.2" d="M214.133 325.977H200.93V426.489H214.133V325.977Z" fill="black"/>
<path d="M357.717 213.891H192.398L177.719 272.311H343.037L357.717 213.891Z" fill="#263238"/>
<path d="M357.718 213.891H361.497L346.818 272.311H343.039L357.718 213.891Z" fill="black"/>
<path d="M381.461 237.258H143.182C135.772 237.258 129.766 242.716 129.766 249.45V295.17C129.766 301.903 135.772 307.362 143.182 307.362H381.461C388.87 307.362 394.877 301.903 394.877 295.17V249.45C394.877 242.716 388.87 237.258 381.461 237.258Z" fill="#2C3E54"/>
<path opacity="0.2" d="M381.475 237.258H351.01C343.6 237.258 337.594 242.716 337.594 249.45V295.17C337.594 301.903 343.6 307.362 351.01 307.362H381.475C388.885 307.362 394.891 301.903 394.891 295.17V249.45C394.891 242.716 388.885 237.258 381.475 237.258Z" fill="black"/>
<path opacity="0.2" d="M327.794 255.377H139.556C138.963 255.377 138.395 255.162 137.975 254.781C137.556 254.4 137.32 253.883 137.32 253.345C137.32 252.806 137.556 252.289 137.975 251.908C138.395 251.527 138.963 251.312 139.556 251.312H327.794C328.387 251.312 328.956 251.527 329.375 251.908C329.794 252.289 330.03 252.806 330.03 253.345C330.03 253.883 329.794 254.4 329.375 254.781C328.956 255.162 328.387 255.377 327.794 255.377Z" fill="black"/>
<path d="M316.84 274.172H328.154C328.646 274.17 329.116 273.991 329.463 273.675C329.811 273.36 330.007 272.932 330.01 272.486C330.01 272.038 329.815 271.608 329.467 271.29C329.12 270.972 328.648 270.792 328.154 270.789H316.84C316.347 270.792 315.875 270.972 315.527 271.29C315.18 271.608 314.984 272.038 314.984 272.486C314.987 272.932 315.184 273.36 315.531 273.675C315.879 273.991 316.349 274.17 316.84 274.172Z" fill="white"/>
<path d="M316.84 281.375H328.154C328.648 281.373 329.12 281.193 329.467 280.875C329.815 280.557 330.01 280.127 330.01 279.679C330.007 279.232 329.811 278.805 329.463 278.489C329.116 278.173 328.646 277.995 328.154 277.992H316.84C316.349 277.995 315.879 278.173 315.531 278.489C315.184 278.805 314.987 279.232 314.984 279.679C314.984 280.127 315.18 280.557 315.527 280.875C315.875 281.193 316.347 281.373 316.84 281.375Z" fill="white"/>
<path d="M316.84 288.55H328.154C328.648 288.547 329.12 288.367 329.467 288.049C329.815 287.731 330.01 287.301 330.01 286.853C330.01 286.405 329.815 285.975 329.467 285.657C329.12 285.339 328.648 285.159 328.154 285.156H316.84C316.347 285.159 315.875 285.339 315.527 285.657C315.18 285.975 314.984 286.405 314.984 286.853C314.984 287.301 315.18 287.731 315.527 288.049C315.875 288.367 316.347 288.547 316.84 288.55Z" fill="white"/>
<path d="M183.475 253.341C185.655 236.201 172.127 222.312 153.289 222.312H291.015C309.876 222.312 323.437 236.201 321.201 253.341H183.475Z" fill="#2C3E54"/>
<g opacity="0.3">
<path d="M183.475 253.341C185.655 236.201 172.127 222.312 153.289 222.312H291.015C309.876 222.312 323.437 236.201 321.201 253.341H183.475Z" fill="white"/>
</g>
<path d="M153.268 222.312H291.017C272.167 222.312 255.118 236.201 252.938 253.341L237.286 376.612C235.117 393.752 218.067 407.641 199.207 407.641H129.779C110.918 407.641 97.3568 393.752 99.5928 376.612L115.245 253.341C117.391 236.201 134.407 222.312 153.268 222.312Z" fill="#2C3E54"/>
<path opacity="0.7" d="M153.268 222.312H291.017C272.167 222.312 255.118 236.201 252.938 253.341L237.286 376.612C235.117 393.752 218.067 407.641 199.207 407.641H129.779C110.918 407.641 97.3568 393.752 99.5928 376.612L115.245 253.341C117.391 236.201 134.407 222.312 153.268 222.312Z" fill="white"/>
<path d="M169.03 376.609C166.85 393.749 180.378 407.638 199.216 407.638H61.4897C42.6291 407.638 29.0677 393.749 31.3037 376.609H169.03Z" fill="#2C3E54"/>
<path opacity="0.5" d="M169.03 376.609C166.85 393.749 180.378 407.638 199.216 407.638H61.4897C42.6291 407.638 29.0677 393.749 31.3037 376.609H169.03Z" fill="white"/>
<path d="M125.215 264.062H128.457L127.25 273.572H124.008L125.215 264.062Z" fill="#2C3E54"/>
<path d="M130.809 264.062H133.828L137.103 269.325L137.763 264.062H140.815L139.608 273.572H136.567L133.302 268.35L132.643 273.572H129.602L130.809 264.062Z" fill="#2C3E54"/>
<path d="M141.883 264.062H145.237L146.724 270.91L149.91 264.062H153.197L148.099 273.572H144.6L141.883 264.062Z" fill="#2C3E54"/>
<path d="M152.777 268.826C152.885 267.444 153.559 266.15 154.667 265.198C155.815 264.305 157.293 263.84 158.803 263.898C159.512 263.845 160.224 263.932 160.892 264.153C161.56 264.374 162.167 264.724 162.672 265.178C163.104 265.675 163.414 266.251 163.58 266.866C163.746 267.481 163.764 268.122 163.633 268.744C163.542 269.711 163.209 270.645 162.66 271.477C162.172 272.184 161.485 272.759 160.67 273.144C159.753 273.518 158.761 273.718 157.756 273.732C156.751 273.746 155.753 273.574 154.823 273.225C154.081 272.867 153.492 272.295 153.146 271.599C152.746 270.723 152.618 269.763 152.777 268.826ZM156.008 268.826C155.849 269.516 155.964 270.236 156.333 270.858C156.512 271.068 156.746 271.235 157.012 271.345C157.279 271.455 157.572 271.504 157.864 271.488C158.178 271.498 158.49 271.448 158.781 271.341C159.072 271.234 159.335 271.073 159.552 270.868C160.083 270.228 160.381 269.454 160.402 268.653C160.561 267.983 160.437 267.283 160.055 266.692C159.872 266.484 159.636 266.319 159.367 266.211C159.099 266.103 158.806 266.056 158.513 266.072C158.206 266.069 157.902 266.123 157.619 266.232C157.336 266.34 157.081 266.5 156.869 266.702C156.335 267.309 156.032 268.058 156.008 268.836V268.826Z" fill="#2C3E54"/>
<path d="M166.09 264.062H169.332L168.125 273.572H164.883L166.09 264.062Z" fill="#2C3E54"/>
<path d="M177.907 269.682L180.634 270.464C180.392 271.126 180.013 271.74 179.516 272.272C179.066 272.75 178.499 273.125 177.862 273.37C177.106 273.632 176.301 273.757 175.492 273.735C174.557 273.768 173.627 273.616 172.764 273.288C172.033 272.94 171.448 272.383 171.098 271.703C170.649 270.793 170.505 269.782 170.684 268.798C170.782 267.422 171.44 266.129 172.529 265.171C173.654 264.292 175.106 263.838 176.587 263.901C177.655 263.835 178.716 264.092 179.606 264.632C180.353 265.2 180.85 265.993 181.003 266.867L178.074 267.436C178.043 267.214 177.964 267 177.839 266.806C177.698 266.588 177.493 266.409 177.247 266.288C176.982 266.162 176.685 266.099 176.386 266.105C176.041 266.099 175.699 266.169 175.389 266.309C175.08 266.448 174.812 266.654 174.608 266.908C174.201 267.464 173.965 268.11 173.926 268.777C173.743 269.505 173.834 270.267 174.184 270.941C174.343 271.141 174.557 271.3 174.803 271.403C175.05 271.506 175.322 271.55 175.592 271.531C175.858 271.544 176.125 271.51 176.376 271.43C176.627 271.35 176.859 271.225 177.057 271.063C177.451 270.667 177.741 270.194 177.907 269.682Z" fill="#2C3E54"/>
<path d="M183.014 264.062H191.679L191.422 266.095H185.988L185.798 267.608H190.829L190.583 269.549H185.586L185.351 271.418H190.941L190.673 273.572H181.852L183.014 264.062Z" fill="#2C3E54"/>
<path d="M236.747 298.389H119.961L121.481 286.359H238.268L236.747 298.389Z" fill="#2C3E54"/>
<path opacity="0.8" d="M236.746 298.391H119.96L118.719 308.205H235.505L236.746 298.391Z" fill="white"/>
<path d="M228.674 362.075H193.133L193.86 356.273H229.412L228.674 362.075Z" fill="#2C3E54"/>
<path opacity="0.8" d="M228.676 362.078H193.135L192.531 366.823H228.072L228.676 362.078Z" fill="white"/>
<path opacity="0.5" d="M234.255 318.028H117.469L118.721 308.203H235.507L234.255 318.028Z" fill="white"/>
<path opacity="0.8" d="M234.254 318.031H117.468L116.227 327.856H233.013L234.254 318.031Z" fill="white"/>
<path opacity="0.5" d="M231.774 337.666H114.977L116.229 327.852H233.015L231.774 337.666Z" fill="white"/>
<path opacity="0.8" d="M231.773 337.672H114.975L113.734 347.497H230.521L231.773 337.672Z" fill="white"/>
</svg>
