<svg width="560" height="565" viewBox="0 0 560 565" fill="none" xmlns="http://www.w3.org/2000/svg">
<path opacity="0.7" d="M76.0796 188.809C76.0796 188.809 44.854 270.169 88.7356 352.094C132.617 434.019 223.001 477.298 295.342 514.306C367.683 551.313 442.801 533.29 478.496 472.677C514.19 412.064 465.235 368.796 465.168 282.362C465.1 195.928 477.992 173.046 431.568 100.025C385.144 27.0047 271.34 10.8345 185.28 64.9954C99.2188 119.156 76.0796 188.809 76.0796 188.809Z" fill="white"/>
<path d="M86.3183 188.084C118.597 128.126 199.797 58.1341 311.192 87.2881C422.587 116.442 497.851 178.117 485.52 285.422C473.189 392.727 408.386 481.884 268.8 484.494C129.214 487.105 15.5343 319.56 86.3183 188.084Z" fill="#2C3E54"/>
<path opacity="0.7" d="M86.3183 188.084C118.597 128.126 199.797 58.1341 311.192 87.2881C422.587 116.442 497.851 178.117 485.52 285.422C473.189 392.727 408.386 481.884 268.8 484.494C129.214 487.105 15.5343 319.56 86.3183 188.084Z" fill="white"/>
<path d="M491.801 269.18L419.15 280.528C416.375 280.961 414.473 283.582 414.903 286.382L421.753 331.028C422.183 333.828 424.781 335.746 427.556 335.313L500.207 323.965C502.983 323.532 504.884 320.911 504.455 318.111L497.604 273.465C497.175 270.665 494.577 268.747 491.801 269.18Z" stroke="#263238" stroke-linecap="round" stroke-linejoin="round"/>
<path d="M416.012 293.588L498.713 280.672" stroke="#263238" stroke-linecap="round" stroke-linejoin="round"/>
<path d="M492.246 295.32L478.887 297.406L481.865 316.814L495.224 314.728L492.246 295.32Z" stroke="#263238" stroke-linecap="round" stroke-linejoin="round"/>
<path d="M484.311 300.586C487.133 297.196 491.77 299.456 490.683 309.977L494.816 312.045L495.22 314.689L481.869 316.779L481.32 313.242L486.36 311.265C486.36 311.265 481.656 303.784 484.311 300.586Z" stroke="#263238" stroke-linecap="round" stroke-linejoin="round"/>
<path d="M455.336 324.316C455.336 324.316 464.99 324.395 462.224 322.452C459.458 320.508 459.043 318.542 461.395 318.508C463.747 318.474 467.69 323.028 467.376 320.248C467.062 317.468 468.765 319.276 469.09 319.457C469.414 319.638 472.203 318.508 472.338 318.836C472.472 319.163 472.282 320.079 481.365 318.666" stroke="#263238" stroke-linecap="round" stroke-linejoin="round"/>
<path d="M423.023 302.258L463.523 295.93" stroke="#263238" stroke-linecap="round" stroke-linejoin="round"/>
<path d="M423.738 306.885L447.594 303.156" stroke="#263238" stroke-linecap="round" stroke-linejoin="round"/>
<path d="M424.992 315.057L458.267 309.859" stroke="#263238" stroke-linecap="round" stroke-linejoin="round"/>
<path d="M435.32 284.507L475.932 278.156" stroke="#263238" stroke-linecap="round" stroke-linejoin="round"/>
<path d="M48.5508 255.881L139.349 237.586L171.056 391.176L74.546 412.058L48.5508 255.881Z" stroke="#263238" stroke-linecap="round" stroke-linejoin="round"/>
<path d="M70.8945 390.149L167.215 372.555" stroke="#263238" stroke-linecap="round" stroke-linejoin="round"/>
<path d="M155.803 359.492L109.805 368.058" stroke="#263238" stroke-linecap="round" stroke-linejoin="round"/>
<path d="M148.983 351.781L135.543 353.781" stroke="#263238" stroke-linecap="round" stroke-linejoin="round"/>
<path d="M151.031 336.102L82.375 349.097" stroke="#263238" stroke-linecap="round" stroke-linejoin="round"/>
<path d="M60.4219 327.227L154.401 310.492" stroke="#263238" stroke-linecap="round" stroke-linejoin="round" stroke-dasharray="1 2"/>
<path d="M160.282 386.203L103.195 398.272" stroke="#263238" stroke-linecap="round" stroke-linejoin="round"/>
<path d="M158.581 381.344L131.746 386.203" stroke="#263238" stroke-linecap="round" stroke-linejoin="round"/>
<path d="M144.066 300.367L96.9922 309.78" stroke="#263238" stroke-linecap="round" stroke-linejoin="round"/>
<path d="M140.344 289.828L125.348 292.8" stroke="#263238" stroke-linecap="round" stroke-linejoin="round"/>
<path d="M139.461 282.5L70.8945 295.834" stroke="#263238" stroke-linecap="round" stroke-linejoin="round"/>
<path d="M133.232 246.859L114.719 250.724" stroke="#263238" stroke-linecap="round" stroke-linejoin="round"/>
<path d="M70.8931 260.141L54.9219 263.271" stroke="#263238" stroke-linecap="round" stroke-linejoin="round"/>
<path d="M60.7383 272.149C61.0713 271.004 61.6434 269.943 62.4161 269.039C63.1888 268.135 64.1442 267.407 65.2183 266.906" stroke="#263238" stroke-linecap="round" stroke-linejoin="round"/>
<path d="M67.8389 282.505C65.8557 282.268 64.0225 281.321 62.6722 279.837C61.322 278.352 60.5443 276.428 60.4805 274.414" stroke="#263238" stroke-linecap="round" stroke-linejoin="round"/>
<path d="M74.0656 280.586C72.9287 281.618 71.5138 282.287 70 282.507" stroke="#263238" stroke-linecap="round" stroke-linejoin="round"/>
<path d="M68.6211 266.141C70.0631 266.188 71.4684 266.612 72.7 267.37C73.9316 268.128 74.9476 269.195 75.6491 270.468C76.3506 271.74 76.7136 273.173 76.7028 274.629C76.692 276.085 76.3077 277.513 75.5875 278.774" stroke="#263238" stroke-linecap="round" stroke-linejoin="round"/>
<path d="M84.9527 268.262C83.4631 267.788 81.9847 267.245 80.4727 266.906" stroke="#263238" stroke-linecap="round" stroke-linejoin="round"/>
<path d="M97.6509 269.354C96.3853 272.393 89.3069 269.625 87.2461 268.992" stroke="#263238" stroke-linecap="round" stroke-linejoin="round"/>
<path d="M85.5312 261.281L98.7696 264.423C98.5568 265.315 98.3888 266.219 98.2208 267.112" stroke="#263238" stroke-linecap="round" stroke-linejoin="round"/>
<path d="M78.9805 264.422C80.3917 261.032 79.8317 259.902 83.3485 260.727" stroke="#263238" stroke-linecap="round" stroke-linejoin="round"/>
<path d="M240.52 504.284L258.048 509.708L245.022 494.227C252.162 486.217 256.251 475.909 256.558 465.141" stroke="#263238" stroke-linecap="round" stroke-linejoin="round"/>
<path d="M219.25 511.109C225.125 509.218 230.669 506.408 235.68 502.781" stroke="#263238" stroke-linecap="round" stroke-linejoin="round"/>
<path d="M151.613 478.227C156.776 503.324 184.261 518.782 213.012 512.771" stroke="#263238" stroke-linecap="round" stroke-linejoin="round"/>
<path d="M155.804 449.938C154.7 452.052 153.764 454.251 153.004 456.514" stroke="#263238" stroke-linecap="round" stroke-linejoin="round"/>
<path d="M255.717 456.443C250.565 431.346 223.069 415.888 194.329 421.911C181.279 424.496 169.518 431.559 161.043 441.9" stroke="#263238" stroke-linecap="round" stroke-linejoin="round"/>
<path d="M225.219 447.248C216.942 438.151 205.664 444.457 200.971 453.689C193.221 446.909 180.419 445.248 176.096 456.808C168.794 476.278 193.77 488.154 205.328 492.448C206.638 492.945 207.714 493.363 208.61 493.668C209.338 493.047 210.189 492.256 211.219 491.307C220.358 482.979 239.174 462.593 225.219 447.248Z" stroke="#263238" stroke-linecap="round" stroke-linejoin="round"/>
<path d="M294.043 76.8421L277.12 69.7344L288.6 86.4132C280.754 93.6906 275.721 103.541 274.398 114.211" stroke="#263238" stroke-linecap="round" stroke-linejoin="round"/>
<path d="M315.839 72.0859C309.813 73.4038 304.028 75.6608 298.691 78.7755" stroke="#263238" stroke-linecap="round" stroke-linejoin="round"/>
<path d="M380.049 111.389C377.305 85.8851 351.422 67.8051 322.234 71.0482" stroke="#263238" stroke-linecap="round" stroke-linejoin="round"/>
<path d="M373.184 139.139C374.464 137.14 375.587 135.043 376.544 132.867" stroke="#263238" stroke-linecap="round" stroke-linejoin="round"/>
<path d="M274.398 122.961C277.142 148.442 303.026 166.5 332.213 163.302C345.447 161.99 357.824 156.101 367.246 146.634" stroke="#263238" stroke-linecap="round" stroke-linejoin="round"/>
<path d="M339.498 138.549C352.439 131.56 357.314 115.309 350.387 102.253C343.459 89.1965 327.353 84.2779 314.412 91.267C301.471 98.2561 296.596 114.506 303.523 127.563C310.451 140.619 326.557 145.538 339.498 138.549Z" stroke="#263238" stroke-linecap="round" stroke-linejoin="round"/>
<path d="M316.859 118.306L324.811 125.877L338.072 102.836" stroke="#263238" stroke-linecap="round" stroke-linejoin="round"/>
<path opacity="0.2" d="M360.182 370.309C360.182 370.309 356.195 418.989 361.963 430.798C367.731 442.606 370.621 523.288 368.034 533.436C368.034 533.436 386.603 538.159 393.95 531.447C401.298 524.735 412.598 531.198 431.213 524.667C449.827 518.135 436.398 373.168 436.398 373.168L436.97 320.431L406.27 292.836L360.182 370.309Z" fill="black" fill-opacity="0.7"/>
<path d="M384.933 393.729C384.817 394.077 384.63 394.397 384.384 394.667C380.419 398.453 363.496 402.656 348.959 405.685C336.919 408.204 326.559 409.911 326.559 409.911C326.559 409.911 318.584 343.049 318.584 336.02C318.584 328.991 305.727 215.2 305.727 215.2L336.549 213.856L377.44 212.07C377.44 212.07 377.687 215.11 378.101 220.421C380.8 254.253 390.074 380.384 384.933 393.729Z" fill="#2C3E54"/>
<mask id="mask0_118_2809" style="mask-type:luminance" maskUnits="userSpaceOnUse" x="305" y="212" width="82" height="198">
<path d="M384.933 393.729C384.817 394.077 384.63 394.397 384.384 394.667C380.419 398.453 363.496 402.656 348.959 405.685C336.919 408.204 326.559 409.911 326.559 409.911C326.559 409.911 318.584 343.049 318.584 336.02C318.584 328.991 305.727 215.2 305.727 215.2L336.549 213.856L377.44 212.07C377.44 212.07 377.687 215.11 378.101 220.421C380.8 254.253 390.074 380.384 384.933 393.729Z" fill="white"/>
</mask>
<g mask="url(#mask0_118_2809)">
<path opacity="0.2" d="M384.932 393.726L348.958 401.15L335.372 403.964C331.688 400.314 328.876 400.246 328.876 400.246L327.756 390.019L325.998 373.284L310.52 226.045C313.88 223.706 315.537 218.587 315.537 218.587L336.257 217.83L372.153 216.508L378.078 220.372C380.8 254.25 390.073 380.38 384.932 393.726Z" fill="black" fill-opacity="0.7"/>
<path d="M384.932 393.726L348.958 401.15L335.372 403.963C331.688 400.314 328.876 400.246 328.876 400.246L327.756 390.019L325.998 373.284L310.52 226.045C313.88 223.706 315.537 218.587 315.537 218.587L336.257 217.83L372.153 216.508L378.078 220.372C380.8 254.25 390.073 380.38 384.932 393.726Z" stroke="#263238" stroke-linecap="round" stroke-linejoin="round"/>
<path d="M330.781 350.382L342.788 350.359L342.799 354.145L339.461 355.343L331.767 356.19L330.781 350.382Z" fill="#2C3E54" stroke="#263238" stroke-linecap="round" stroke-linejoin="round"/>
<path d="M331.52 358.18L340.345 357.875L342.608 358.96L342.496 363.988L332.192 364.101L331.52 358.18Z" fill="#2C3E54" stroke="#263238" stroke-linecap="round" stroke-linejoin="round"/>
<path d="M332.931 366.211L343.011 365.477L342.899 369.285L338.027 371.025L332.875 370.731L332.931 366.211Z" fill="#2C3E54" stroke="#263238" stroke-linecap="round" stroke-linejoin="round"/>
<path d="M333.535 372.633L341.678 373.051L342.417 375.153L341.23 377.469L333.95 377.944L332.695 374.362L333.535 372.633Z" fill="#2C3E54" stroke="#263238" stroke-linecap="round" stroke-linejoin="round"/>
<path d="M342.92 379.992L344.04 383.28C344.218 383.63 344.312 384.017 344.312 384.41C344.312 384.804 344.218 385.191 344.04 385.54C343.831 385.781 343.565 385.963 343.267 386.07C342.969 386.177 342.649 386.204 342.337 386.151C341.71 386.094 341.094 385.88 340.467 385.846C338.574 385.767 336.838 387.337 334.979 386.976C334.251 384.942 332.414 381.958 334.9 381.043C335.36 380.896 343.188 380.738 342.92 379.992Z" fill="#2C3E54" stroke="#263238" stroke-linecap="round" stroke-linejoin="round"/>
<path d="M342.887 389.242C343.065 390.024 343.192 390.817 343.268 391.615C343.381 392.12 343.365 392.646 343.22 393.142C343.075 393.639 342.806 394.09 342.439 394.452C341.961 394.716 341.427 394.86 340.882 394.87L334.409 395.457C334.314 394.224 334.295 392.986 334.353 391.751C334.733 390.282 334.465 390.406 335.842 389.807C338.026 388.869 340.647 390.361 342.887 389.242Z" fill="#2C3E54" stroke="#263238" stroke-linecap="round" stroke-linejoin="round"/>
<path d="M319.344 229.391C319.344 229.391 321.785 253.2 321.897 257.912" stroke="#263238" stroke-linecap="round" stroke-linejoin="round"/>
<path d="M324.609 229.656L325.752 242.776" stroke="#263238" stroke-linecap="round" stroke-linejoin="round"/>
<path d="M342.855 224.695L344.334 240.075L346.406 240.278L345.734 224.842L342.855 224.695Z" fill="#2C3E54" stroke="#263238" stroke-linecap="round" stroke-linejoin="round"/>
<path opacity="0.2" d="M384.933 393.729C384.817 394.077 384.63 394.397 384.384 394.667C380.419 398.453 363.496 402.656 348.958 405.685V395.515L327.801 390.045L324.609 389.22L326.043 373.31L331.52 312.516L336.302 217.879L336.504 213.856L377.44 212.07C377.44 212.07 377.686 215.11 378.101 220.421C380.8 254.253 390.073 380.384 384.933 393.729Z" fill="black" fill-opacity="0.7"/>
</g>
<path d="M384.933 393.729C384.817 394.077 384.63 394.397 384.384 394.667C380.419 398.453 363.496 402.656 348.959 405.685C336.919 408.204 326.559 409.911 326.559 409.911C326.559 409.911 318.584 343.049 318.584 336.02C318.584 328.991 305.727 215.2 305.727 215.2L336.549 213.856L377.44 212.07C377.44 212.07 377.687 215.11 378.101 220.421C380.8 254.253 390.074 380.384 384.933 393.729Z" stroke="#263238" stroke-linecap="round" stroke-linejoin="round"/>
<path d="M406.627 545.451C406.885 543.067 403.166 508.862 403.099 505.144C402.92 494.974 400.064 481.629 400.064 481.629C396.077 471.346 392.974 447.65 382.334 432.451C371.694 417.253 371.706 399.376 369.936 384.2C368.166 369.024 368.603 370.335 369.051 356.866C369.374 346.748 368.929 336.619 367.718 326.57C366.834 317.621 365.064 301.88 367.718 294.546C370.373 287.212 377.317 285.506 384.922 292.851C392.526 300.196 395.629 330.311 395.629 334.028C395.629 337.746 395.629 349.362 398.294 353.837C398.294 353.837 413.358 346.063 413.358 343.916C413.358 341.769 412.91 322.796 415.128 321.779L406.269 292.851L423.069 286.828C426.231 289.69 428.963 293.002 431.178 296.659C433.074 299.687 434.661 302.902 435.915 306.253C443.005 325.226 454.395 338.458 456.747 343.916C459.099 349.374 456.747 392.72 456.747 400.777C456.747 408.834 451.595 445.977 451.73 452.226C451.83 456.746 454.854 473.561 457.867 486.454C458.987 491.426 465.786 527.45 466.827 530.309L406.627 545.451Z" fill="white"/>
<path opacity="0.4" d="M419.888 319.869C419.776 322.299 422.654 341.667 422.654 341.667C424.648 346.492 413.762 362.945 413.762 362.945C411.41 364.278 410.402 372.55 410.402 372.55C403.032 370.9 386.154 353.781 386.154 353.781C386.154 353.781 384.16 360.798 381.92 378.166C379.68 395.534 393.882 436.79 399.93 465.278C405.978 493.765 403.099 505.11 403.099 505.11C402.92 494.94 400.064 481.595 400.064 481.595C396.077 471.312 392.974 447.616 382.334 432.417C371.694 417.219 371.706 399.376 369.936 384.2C368.166 369.024 368.603 370.335 369.051 356.866C369.374 346.748 368.929 336.619 367.718 326.57C366.834 317.621 365.064 301.88 367.718 294.546C370.373 287.212 377.317 285.506 384.922 292.851C392.526 300.196 395.629 330.311 395.629 334.028C395.629 337.746 395.629 349.362 398.294 353.837C398.294 353.837 413.358 346.063 413.358 343.916C413.358 341.769 412.91 322.796 415.128 321.779L406.269 292.851L423.069 286.828C426.231 289.69 428.963 293.002 431.178 296.659C425.746 307.62 420 318.355 419.888 319.869Z" fill="#2C3E54"/>
<path opacity="0.4" d="M448.134 455.221C448.874 448.441 451.08 432.327 452.48 422.27C450.766 430.124 448 434.101 448 434.101C448 434.101 452.771 376.471 453.242 372.957C453.712 369.443 458.528 353.645 456.758 343.859C459.11 349.306 456.758 392.664 456.758 400.721C456.758 408.778 451.606 445.921 451.741 452.17C451.842 456.69 456.646 485.494 459.659 498.387C453.186 488.895 447.395 462.035 448.134 455.221Z" fill="#2C3E54"/>
<path d="M466.805 530.255C463.266 519.972 451.898 458.387 451.764 452.172C451.629 445.957 456.781 408.768 456.781 400.723C456.781 392.677 459.133 349.308 456.781 343.861C454.429 338.414 443.039 325.171 435.949 306.198C433.27 298.779 428.864 292.118 423.103 286.773L406.303 292.796L415.162 321.724C412.922 322.741 413.393 341.714 413.393 343.861C413.393 346.008 398.329 353.782 398.329 353.782C395.663 349.262 395.663 337.691 395.663 333.974C395.663 330.256 392.561 300.13 384.956 292.796C377.351 285.463 370.396 287.146 367.753 294.491C365.109 301.836 366.868 317.566 367.753 326.516C368.965 336.576 369.41 346.716 369.085 356.845C368.637 370.314 368.189 368.981 369.97 384.179C371.751 399.378 371.74 417.255 382.369 432.453C392.997 447.652 396.111 471.348 400.098 481.631C400.098 481.631 407.625 536.515 406.661 545.453" stroke="#263238" stroke-linecap="round" stroke-linejoin="round"/>
<path d="M398.293 353.781C398.293 353.781 400.947 366.29 406.928 372.551" stroke="#263238" stroke-linecap="round" stroke-linejoin="round"/>
<path d="M399.906 359.484C399.906 359.484 411.106 362.942 415.788 363.157" stroke="#263238" stroke-linecap="round" stroke-linejoin="round"/>
<path d="M413.359 343.861C413.359 343.861 421.334 340.143 426.43 342.381" stroke="#263238" stroke-linecap="round" stroke-linejoin="round"/>
<path d="M415.129 321.722C415.129 321.722 421.334 321.146 422.655 318.016" stroke="#263238" stroke-linecap="round" stroke-linejoin="round"/>
<path d="M384.383 435.641C384.383 435.641 396.3 450.568 399.839 458.162" stroke="#263238" stroke-linecap="round" stroke-linejoin="round"/>
<path d="M453.677 370.312C451.683 382.166 449.018 414.575 448.133 420.383" stroke="#263238" stroke-linecap="round" stroke-linejoin="round"/>
<path d="M457.486 347.961C457.822 358.696 455.246 364.278 455.246 364.278" stroke="#263238" stroke-linecap="round" stroke-linejoin="round"/>
<path d="M365.882 197.75L448.001 219.604C448.001 219.604 419.138 307.981 413.281 318.942L403.492 395.986C403.492 395.986 351.031 393.658 326.906 386.302C326.906 386.302 342.161 306.072 342.978 295.371C343.796 284.67 365.882 197.75 365.882 197.75Z" fill="#2C3E54"/>
<mask id="mask1_118_2809" style="mask-type:luminance" maskUnits="userSpaceOnUse" x="326" y="197" width="122" height="199">
<path d="M365.882 197.75L448.001 219.604C448.001 219.604 419.138 307.981 413.281 318.942L403.492 395.986C403.492 395.986 351.031 393.658 326.906 386.302C326.906 386.302 342.161 306.072 342.978 295.371C343.796 284.67 365.882 197.75 365.882 197.75Z" fill="white"/>
</mask>
<g mask="url(#mask1_118_2809)">
<path opacity="0.2" d="M348.218 290.623L366.317 212.552C366.317 212.552 374.101 208.653 377.114 205.094L435.948 221.976C435.948 221.976 436.127 227.795 439.498 231.524L409.807 317.845L402.605 381.475C402.605 381.475 393.029 382.244 392.111 389.385C392.111 389.385 361.065 391.08 340.244 385.543C340.244 385.543 337.791 377.826 334.039 372.944L348.218 290.623Z" fill="black" fill-opacity="0.7"/>
<path d="M348.218 290.623L366.317 212.552C366.317 212.552 374.101 208.653 377.114 205.094L435.948 221.976C435.948 221.976 436.127 227.795 439.498 231.524L409.807 317.845L402.605 381.475C402.605 381.475 393.029 382.244 392.111 389.385C392.111 389.385 361.065 391.08 340.244 385.543C340.244 385.543 337.791 377.826 334.039 372.944L348.218 290.623Z" stroke="#263238" stroke-linecap="round" stroke-linejoin="round"/>
<path d="M363.284 294.683C363.284 294.683 368.626 274.343 387.442 277.993C406.258 281.643 395.63 306.706 395.63 306.706C395.63 306.706 395.742 326.933 380.476 324.142C367.238 321.724 360.182 314.39 363.284 294.683Z" fill="#2C3E54" stroke="#263238" stroke-linecap="round" stroke-linejoin="round"/>
<path d="M373.473 219.977C373.473 219.977 367.784 243.221 366.316 247.695" stroke="#263238" stroke-linecap="round" stroke-linejoin="round"/>
<path d="M378.346 221.984L375.031 234.731" stroke="#263238" stroke-linecap="round" stroke-linejoin="round"/>
<path d="M419.887 230.922L431.211 234.945L429.967 238.527H426.428L418.891 236.741L419.887 230.922Z" fill="#2C3E54" stroke="#263238" stroke-linecap="round" stroke-linejoin="round"/>
<path d="M418.005 238.531L426.427 241.209L428.197 242.995L426.427 247.696L416.672 244.339L418.005 238.531Z" fill="#2C3E54" stroke="#263238" stroke-linecap="round" stroke-linejoin="round"/>
<path d="M416.675 246.578L426.43 249.29L425.052 252.838H419.889L415.129 250.827L416.675 246.578Z" fill="#2C3E54" stroke="#263238" stroke-linecap="round" stroke-linejoin="round"/>
<path d="M415.128 252.836L422.655 255.966V258.192L420.773 259.989L413.762 257.977V254.169L415.128 252.836Z" fill="#2C3E54" stroke="#263238" stroke-linecap="round" stroke-linejoin="round"/>
<path d="M421.545 262.924V266.405C421.603 266.788 421.572 267.18 421.453 267.549C421.335 267.917 421.132 268.253 420.862 268.529C420.584 268.682 420.272 268.763 419.955 268.763C419.638 268.763 419.326 268.682 419.047 268.529C418.476 268.258 417.927 267.851 417.39 267.614C415.631 266.902 413.47 267.795 411.79 266.845C411.79 264.687 411.039 261.263 413.683 261.195C414.119 261.229 421.545 263.715 421.545 262.924Z" fill="#2C3E54" stroke="#263238" stroke-linecap="round" stroke-linejoin="round"/>
<path d="M418.441 271.64C418.356 272.437 418.214 273.226 418.015 274.002C417.769 275.008 417.287 276.126 416.291 276.398C415.754 276.488 415.203 276.441 414.689 276.262L408.395 274.59C408.699 273.401 409.073 272.231 409.515 271.087C410.366 269.832 410.075 269.855 411.564 269.753C413.983 269.652 415.954 271.945 418.441 271.64Z" fill="#2C3E54" stroke="#263238" stroke-linecap="round" stroke-linejoin="round"/>
<path d="M397.185 223.555L393.41 238.527L395.292 239.42L399.839 224.662L397.185 223.555Z" fill="#2C3E54" stroke="#263238" stroke-linecap="round" stroke-linejoin="round"/>
<path d="M349.887 324.102L361.512 327.141L360.572 330.802L357.044 331.119L349.383 329.978L349.887 324.102Z" fill="#2C3E54" stroke="#263238" stroke-linecap="round" stroke-linejoin="round"/>
<path d="M348.657 331.844L357.27 333.787L359.196 335.415L357.83 340.251L347.828 337.742L348.657 331.844Z" fill="#2C3E54" stroke="#263238" stroke-linecap="round" stroke-linejoin="round"/>
<path d="M348.015 339.984L357.961 341.838L356.886 345.487L351.745 345.939L346.828 344.346L348.015 339.984Z" fill="#2C3E54" stroke="#263238" stroke-linecap="round" stroke-linejoin="round"/>
<path d="M346.997 346.344L354.77 348.818L354.96 351.045L353.236 352.988L346.079 351.587L345.754 347.801L346.997 346.344Z" fill="#2C3E54" stroke="#263238" stroke-linecap="round" stroke-linejoin="round"/>
<path d="M354.243 355.85L354.546 359.319C354.637 359.697 354.64 360.091 354.552 360.47C354.465 360.849 354.29 361.202 354.042 361.5C353.778 361.676 353.474 361.782 353.159 361.808C352.843 361.833 352.527 361.778 352.238 361.647C351.645 361.432 351.118 361.07 350.502 360.889C348.699 360.324 346.616 361.398 344.902 360.596C344.701 358.449 343.682 355.104 346.302 354.844C346.706 354.821 354.31 356.641 354.243 355.85Z" fill="#2C3E54" stroke="#263238" stroke-linecap="round" stroke-linejoin="round"/>
<path d="M351.904 364.798C351.888 365.62 351.813 366.439 351.68 367.25C351.512 368.267 351.131 369.431 350.168 369.781C349.638 369.917 349.084 369.917 348.555 369.781L342.148 368.651C342.364 367.437 342.652 366.237 343.011 365.058C343.75 363.736 343.459 363.781 344.937 363.555C347.289 363.205 349.44 365.318 351.904 364.798Z" fill="#2C3E54" stroke="#263238" stroke-linecap="round" stroke-linejoin="round"/>
<path d="M398.293 375.765C398.293 375.765 400.959 345.775 400.959 342.758" stroke="#263238" stroke-linecap="round" stroke-linejoin="round"/>
<path d="M392.973 374.423C392.973 374.423 394.093 358.829 394.294 356.117" stroke="#263238" stroke-linecap="round" stroke-linejoin="round"/>
<path d="M372.197 363.156L368.602 380.909H372.197L374.806 363.156H372.197Z" fill="#2C3E54" stroke="#263238" stroke-linecap="round" stroke-linejoin="round"/>
<path opacity="0.2" d="M413.47 318.504C405.698 316.865 398.765 314.458 393.635 310.989C393.635 310.989 397.354 321.77 410.536 340.143L403.446 395.988C403.446 395.988 369.208 394.474 343.336 390.01C351.288 367.41 365.736 324.583 364.022 316.097C361.704 304.447 369.891 290.694 369.891 290.694C395.774 285.994 420.874 266.253 438.099 249.562C429.33 275.722 417.357 310.752 413.47 318.504Z" fill="black" fill-opacity="0.7"/>
</g>
<path d="M365.882 197.75L448.001 219.604C448.001 219.604 419.138 307.981 413.281 318.942L403.492 395.986C403.492 395.986 351.031 393.658 326.906 386.302C326.906 386.302 342.161 306.072 342.978 295.371C343.796 284.67 365.882 197.75 365.882 197.75Z" stroke="#263238" stroke-linecap="round" stroke-linejoin="round"/>
<path d="M411.41 373.679L399.84 458.158C397.264 452.632 390.242 443.208 386.613 438.496C385.269 436.733 384.373 435.637 384.373 435.637L382.323 432.45C371.694 417.252 371.694 399.375 369.925 384.177C368.155 368.978 368.592 370.311 369.04 356.842C369.366 346.732 368.924 336.611 367.718 326.569C366.834 317.62 365.064 301.879 367.718 294.545C369.018 290.952 371.358 288.714 374.293 288.24C377.227 287.765 381.013 289.121 384.922 292.85C392.526 300.184 395.629 330.309 395.629 334.027C395.629 337.745 395.629 349.361 398.294 353.836C398.294 353.78 405.44 367.419 411.41 373.679Z" fill="white"/>
<path opacity="0.4" d="M381.45 426.43C383.869 429.549 385.515 434.046 386.613 438.498C385.269 436.735 384.373 435.639 384.373 435.639L382.323 432.453C371.694 417.254 371.694 399.378 369.925 384.179C368.155 368.981 368.592 370.314 369.04 356.844C369.366 346.734 368.924 336.614 367.718 326.572C366.834 317.622 365.064 301.881 367.718 294.548C369.018 290.954 371.358 288.717 374.293 288.242C379.893 289.847 385.493 295.598 387.442 305.441C390.802 321.961 375.648 308.616 372.142 322.617C368.637 336.617 373.733 340.392 375.827 343.917C377.922 347.443 375.245 355.217 372.142 365.658C369.04 376.1 374.808 417.853 381.45 426.43Z" fill="#2C3E54"/>
<path d="M411.409 373.677C405.428 367.417 398.293 353.778 398.293 353.778C395.628 349.258 395.628 337.687 395.628 333.969C395.628 330.251 392.525 300.125 384.921 292.792C377.316 285.458 370.361 287.142 367.717 294.487C365.074 301.832 366.833 317.561 367.717 326.511C368.929 336.572 369.375 346.711 369.05 356.84C368.602 370.31 368.154 368.976 369.935 384.175C371.716 399.373 371.705 417.25 382.333 432.449L384.383 435.635C384.383 435.635 396.3 450.562 399.839 458.156" stroke="#263238" stroke-linecap="round" stroke-linejoin="round"/>
<path d="M372.199 337.93C372.199 337.93 382.358 332.63 387.442 333.082" stroke="#263238" stroke-linecap="round" stroke-linejoin="round"/>
<path opacity="0.2" d="M217.067 193.012C217.067 193.012 191.374 164.468 189.604 162.717C187.835 160.965 186.502 130.523 181.619 117.121C176.735 103.719 174.372 25.0261 174.372 25.0261C174.372 25.0261 169.724 19.2179 156.62 22.348C143.516 25.4781 130.67 19.6586 116.054 28.1562C101.438 36.6538 129.785 158.197 129.785 158.197L158.558 250.71L217.067 193.012Z" fill="black" fill-opacity="0.7"/>
<path d="M234.717 193.227C234.717 193.227 223.204 267.434 211.197 277.265C204.265 282.915 193.457 285.514 183.869 285.175C176.925 284.926 170.608 283.163 166.89 279.965C158.031 272.361 145.61 268.338 139.428 263.422C133.245 258.507 133.223 241.071 129.236 226.313C125.249 211.555 119.481 211.115 118.159 196.368C116.837 181.622 111.506 136.478 101.874 123.946C92.2421 111.415 92.0181 101.595 88.0309 88.8486C84.0437 76.1022 54.8789 29.9869 54.8789 29.9869L125.977 15.2969C125.977 15.2969 132.965 44.4848 140.447 68.2939C143.997 79.5939 147.66 89.6961 150.729 94.8715C156.621 104.882 161.725 115.344 165.994 126.161C174.036 134.659 178.437 153.485 179.77 169.971L198.81 180.684C213.449 184.718 234.717 193.227 234.717 193.227Z" fill="white"/>
<path opacity="0.4" d="M234.717 193.231C234.717 193.231 223.203 267.438 211.197 277.269C204.264 282.919 193.456 285.518 183.869 285.179C161.133 279.529 155.018 266.737 151.938 263.641C147.838 259.516 142.451 234.385 145.408 219.763C148.365 205.141 146.237 199.728 143.795 192.586C138.386 176.766 154.883 168.246 156.586 162.257C158.288 156.268 157.706 122.775 150.28 111.882C146.338 106.085 136.179 76.2077 140.458 68.3203C144.008 79.6203 147.67 89.7225 150.739 94.8979C156.632 104.909 161.736 115.371 166.005 126.188C174.046 134.685 178.448 153.511 179.781 169.998L198.821 180.71C213.448 184.722 234.717 193.231 234.717 193.231Z" fill="#2C3E54"/>
<path d="M147.896 188.008C147.896 188.008 143.887 192.765 140.348 192.765" stroke="#263238" stroke-linecap="round" stroke-linejoin="round"/>
<path d="M156.618 204.086C156.618 204.086 152.306 213.329 145.418 215.386" stroke="#263238" stroke-linecap="round" stroke-linejoin="round"/>
<path d="M148.957 258.261C148.957 258.261 158.712 254.012 160.258 246.859" stroke="#263238" stroke-linecap="round" stroke-linejoin="round"/>
<path d="M198.832 180.695C198.832 180.695 196.391 183.825 196.391 186.345" stroke="#263238" stroke-linecap="round" stroke-linejoin="round"/>
<path d="M126.021 15.2969C126.021 15.2969 141.231 78.769 150.773 94.9167C156.666 104.927 161.77 115.389 166.039 126.206C174.081 134.704 178.482 153.541 179.815 170.028L198.855 180.74C213.471 184.763 234.695 193.261 234.695 193.261C234.695 193.261 223.181 267.468 211.175 277.299C199.169 287.13 175.839 287.536 166.879 279.943C157.919 272.349 145.599 268.315 139.417 263.4C133.234 258.484 133.212 241.048 129.225 226.29C125.237 211.533 119.469 211.092 118.148 196.345C116.826 181.599 111.495 136.455 101.863 123.924C92.2309 111.392 92.0069 101.572 88.0197 88.826C84.0325 76.0796 54.8789 29.9869 54.8789 29.9869" stroke="#263238" stroke-linecap="round" stroke-linejoin="round"/>
<path d="M261.655 188.414L144.066 371.033L171.82 374.152L256.145 377.689L264.78 215.252L261.655 188.414Z" fill="#263238" stroke="#263238" stroke-linecap="round" stroke-linejoin="round"/>
<path d="M261.655 188.403L250.791 374.57L144.066 371.033L152.489 228.382L155.11 184.086L201.612 185.973L261.655 188.403Z" fill="#757575"/>
<mask id="mask2_118_2809" style="mask-type:luminance" maskUnits="userSpaceOnUse" x="144" y="184" width="118" height="191">
<path d="M261.655 188.403L250.791 374.57L144.066 371.033L152.489 228.382L155.11 184.086L201.612 185.973L261.655 188.403Z" fill="white"/>
</mask>
<g mask="url(#mask2_118_2809)">
<path d="M234.82 353.13C241.995 353.13 247.812 347.261 247.812 340.022C247.812 332.783 241.995 326.914 234.82 326.914C227.645 326.914 221.828 332.783 221.828 340.022C221.828 347.261 227.645 353.13 234.82 353.13Z" fill="#BFBFBF" stroke="#263238" stroke-miterlimit="10"/>
<path d="M231.16 331.328L239.963 332.492" stroke="#263238" stroke-linecap="round" stroke-linejoin="round"/>
<path d="M228.797 333.484L242.024 334.784" stroke="#263238" stroke-linecap="round" stroke-linejoin="round"/>
<path d="M227.328 346.633L240.567 347.932" stroke="#263238" stroke-linecap="round" stroke-linejoin="round"/>
<path d="M233.121 336.459C233.484 336.55 233.869 336.497 234.194 336.309C234.52 336.122 234.761 335.815 234.868 335.453L235.854 335.555L234.857 344.99L233.39 344.832L234.151 337.634L233.031 337.51L233.121 336.459Z" fill="#263238"/>
<path d="M238.013 336.849C238.596 336.849 238.865 337.289 238.797 337.911V338.024L238.226 337.967V337.866C238.226 337.594 238.159 337.47 237.969 337.447C237.778 337.425 237.655 337.527 237.633 337.798C237.61 338.069 237.7 338.306 238.058 338.69C238.24 338.846 238.383 339.043 238.474 339.265C238.566 339.487 238.604 339.728 238.585 339.967C238.517 340.589 238.181 340.905 237.588 340.837C236.994 340.77 236.737 340.385 236.793 339.775V339.538L237.353 339.594V339.877C237.353 340.148 237.431 340.261 237.621 340.284C237.812 340.306 237.946 340.216 237.969 339.945C237.991 339.674 237.901 339.436 237.543 339.052C237.361 338.897 237.218 338.7 237.127 338.478C237.035 338.256 236.998 338.015 237.017 337.775C237.095 337.097 237.442 336.736 238.013 336.849Z" fill="#263238"/>
<path d="M239.068 337.008L240.927 337.2L240.86 337.754L240.233 337.686L239.885 340.985L239.292 340.929L239.639 337.618L239.012 337.55L239.068 337.008Z" fill="#263238"/>
<path d="M207.582 196.669L186.747 192.082C186.209 191.963 185.678 192.307 185.561 192.85L182.727 205.954C182.609 206.497 182.95 207.033 183.488 207.151L204.322 211.739C204.86 211.857 205.391 211.513 205.509 210.97L208.343 197.866C208.461 197.323 208.12 196.787 207.582 196.669Z" fill="white" stroke="#263238" stroke-linecap="round" stroke-linejoin="round"/>
<path d="M190.402 205.003L190.323 204.924C190.323 204.924 190.323 204.788 190.267 204.732C190.214 204.681 190.172 204.619 190.144 204.551C190.139 204.529 190.139 204.505 190.144 204.483C190.144 204.483 190.2 204.483 190.234 204.404C190.261 204.387 190.285 204.364 190.302 204.337C190.32 204.309 190.331 204.278 190.335 204.246C190.33 204.227 190.33 204.208 190.335 204.189H190.402C190.402 203.975 190.267 203.816 190.133 203.647C189.808 203.24 189.741 203.037 189.808 202.765C189.875 202.494 189.987 202.415 190.178 202.449C190.368 202.483 190.447 202.619 190.391 202.89V203.048L190.951 203.172V203.048C191.026 202.848 191.023 202.627 190.942 202.429C190.861 202.231 190.707 202.073 190.514 201.986L190.581 201.715L190.099 201.602L190.043 201.884C189.607 201.884 189.327 202.167 189.215 202.675C189.172 202.902 189.187 203.137 189.26 203.357C189.333 203.576 189.46 203.773 189.629 203.929C189.954 204.325 190.021 204.551 189.954 204.811C189.887 205.071 189.763 205.161 189.573 205.116C189.383 205.071 189.293 204.946 189.349 204.686L189.416 204.381L188.856 204.257V204.517C188.81 204.62 188.785 204.731 188.782 204.844C188.779 204.957 188.798 205.069 188.839 205.175C188.879 205.28 188.941 205.376 189.019 205.457C189.097 205.538 189.19 205.603 189.293 205.647V205.918L189.775 206.031L189.831 205.749H190.122C190.21 205.718 190.29 205.667 190.357 205.602C190.425 205.532 190.482 205.452 190.525 205.364C190.402 205.071 190.402 205.037 190.402 205.003Z" fill="#263238"/>
<path d="M193.482 204.819C193.477 204.729 193.454 204.641 193.415 204.56C193.404 204.515 193.404 204.468 193.415 204.424C193.432 204.39 193.46 204.362 193.493 204.345C193.796 204.074 193.426 203.712 193.135 203.644C193.034 203.619 192.929 203.62 192.829 203.648C192.729 203.676 192.637 203.729 192.564 203.802L192.799 202.921L193.829 203.147L193.941 202.605L192.396 202.266C192.363 202.341 192.34 202.421 192.328 202.503C192.328 202.582 192.429 202.605 192.429 202.695C192.429 202.785 192.429 202.774 192.429 202.819C192.45 202.886 192.494 202.942 192.552 202.978C192.608 202.978 192.664 203.079 192.653 203.147C192.661 203.169 192.661 203.193 192.653 203.215C192.611 203.319 192.536 203.406 192.44 203.463C192.396 203.472 192.357 203.496 192.328 203.531V203.599C192.328 203.678 192.239 203.723 192.172 203.769C192.104 203.814 191.936 204.175 191.869 204.424L192.429 204.548V204.435C192.485 204.164 192.631 204.096 192.81 204.13C192.989 204.164 193.101 204.3 193.034 204.571L192.855 205.407C192.855 205.667 192.664 205.746 192.474 205.701C192.284 205.656 192.194 205.543 192.25 205.271L192.328 204.921L191.768 204.797L191.701 205.113C191.658 205.236 191.641 205.366 191.651 205.496C191.662 205.626 191.7 205.752 191.763 205.866C191.825 205.979 191.911 206.078 192.015 206.156C192.119 206.234 192.238 206.288 192.364 206.316C192.49 206.343 192.62 206.343 192.746 206.316C192.873 206.288 192.991 206.234 193.095 206.157C193.199 206.079 193.285 205.981 193.348 205.867C193.411 205.753 193.449 205.627 193.46 205.497C193.499 205.274 193.507 205.045 193.482 204.819Z" fill="#263238"/>
<path d="M200.797 206.405C200.786 206.316 200.764 206.229 200.729 206.145C200.718 206.101 200.718 206.054 200.729 206.01C200.747 205.976 200.774 205.948 200.808 205.931C201.099 205.66 200.729 205.298 200.449 205.23C200.349 205.205 200.243 205.206 200.143 205.234C200.043 205.262 199.952 205.315 199.878 205.388L200.113 204.507L201.144 204.733L201.256 204.191L199.71 203.852C199.673 203.925 199.65 204.006 199.643 204.089C199.643 204.168 199.733 204.191 199.744 204.281C199.755 204.371 199.744 204.36 199.744 204.405C199.764 204.471 199.808 204.528 199.867 204.563C199.923 204.563 199.979 204.665 199.968 204.733C199.957 204.801 199.968 204.733 199.968 204.801C199.925 204.908 199.845 204.996 199.744 205.049C199.704 205.061 199.669 205.085 199.643 205.117C199.643 205.117 199.643 205.117 199.643 205.185C199.643 205.253 199.565 205.309 199.497 205.354C199.43 205.4 199.262 205.761 199.195 206.01L199.755 206.134V206.021C199.811 205.75 199.957 205.682 200.136 205.716C200.315 205.75 200.416 205.886 200.36 206.157L200.181 206.993C200.181 207.253 199.99 207.332 199.8 207.287C199.609 207.242 199.52 207.129 199.576 206.857L199.654 206.507L199.094 206.383L199.027 206.699C198.993 206.818 198.984 206.943 199 207.065C199.015 207.188 199.056 207.306 199.119 207.412C199.182 207.518 199.266 207.61 199.365 207.683C199.465 207.755 199.578 207.806 199.697 207.832C199.817 207.858 199.941 207.859 200.061 207.836C200.182 207.812 200.296 207.763 200.397 207.693C200.497 207.623 200.583 207.533 200.648 207.428C200.713 207.323 200.756 207.206 200.774 207.083C200.819 206.86 200.827 206.631 200.797 206.405Z" fill="#263238"/>
<path d="M194.758 203.703C194.814 203.432 194.96 203.353 195.139 203.398C195.196 203.406 195.249 203.434 195.288 203.477C195.327 203.521 195.35 203.577 195.352 203.635H195.542C195.549 203.668 195.562 203.699 195.581 203.726C195.601 203.754 195.626 203.776 195.654 203.793C195.721 203.85 195.811 203.884 195.889 203.94C195.926 203.821 195.938 203.696 195.923 203.572C195.909 203.449 195.868 203.33 195.805 203.223C195.741 203.116 195.656 203.024 195.555 202.953C195.454 202.882 195.339 202.833 195.217 202.81C195.094 202.768 194.963 202.756 194.834 202.773C194.704 202.791 194.581 202.838 194.473 202.911C194.365 202.984 194.275 203.081 194.21 203.195C194.144 203.309 194.106 203.436 194.097 203.567C194.092 203.639 194.092 203.711 194.097 203.782C194.097 203.963 194.097 203.906 194.277 203.974C194.456 204.042 194.512 204.132 194.355 204.189H194.456C194.456 204.189 194.456 204.268 194.456 204.302C194.456 204.336 194.456 204.358 194.4 204.404C194.41 204.433 194.41 204.465 194.4 204.494C194.4 204.494 194.31 204.641 194.288 204.663C194.255 204.719 194.209 204.766 194.153 204.799C194.008 204.889 193.941 204.799 193.896 205.025C193.851 205.251 193.84 205.274 193.817 205.387C193.774 205.51 193.758 205.642 193.769 205.772C193.78 205.903 193.819 206.03 193.882 206.144C193.945 206.259 194.032 206.359 194.136 206.437C194.24 206.515 194.36 206.57 194.487 206.598C194.613 206.626 194.745 206.627 194.872 206.6C194.999 206.573 195.119 206.52 195.224 206.443C195.329 206.365 195.417 206.267 195.482 206.153C195.546 206.039 195.586 205.913 195.598 205.782L195.777 204.991H195.71C195.577 204.931 195.45 204.859 195.329 204.776L195.229 204.686L195.005 205.703C195.005 205.974 194.803 206.053 194.624 206.008C194.445 205.963 194.344 205.839 194.4 205.567L194.725 204.031C194.717 203.935 194.741 203.84 194.792 203.759L194.758 203.703Z" fill="#263238"/>
<path d="M197.514 205.569H197.57C197.57 205.512 197.57 205.456 197.57 205.377H197.817L198.007 204.507C198.05 204.383 198.067 204.252 198.055 204.121C198.044 203.99 198.006 203.864 197.943 203.749C197.879 203.634 197.793 203.535 197.689 203.457C197.584 203.378 197.465 203.323 197.338 203.295C197.211 203.267 197.08 203.266 196.952 203.293C196.825 203.32 196.705 203.374 196.6 203.451C196.495 203.528 196.407 203.627 196.343 203.741C196.278 203.854 196.239 203.981 196.226 204.111V204.269C196.305 204.337 196.349 204.45 196.428 204.507C196.506 204.563 196.629 204.507 196.596 204.699C196.562 204.891 196.529 204.857 196.596 204.914C196.663 204.97 196.674 204.914 196.685 204.993C196.699 205.01 196.706 205.032 196.706 205.055C196.706 205.077 196.699 205.099 196.685 205.117C196.685 205.117 196.607 205.117 196.596 205.219C196.585 205.32 196.596 205.388 196.529 205.411C196.461 205.433 196.316 205.275 196.193 205.286C196.149 205.299 196.109 205.324 196.077 205.358C196.046 205.392 196.024 205.433 196.013 205.479C195.956 205.671 195.915 205.867 195.89 206.066C195.849 206.186 195.835 206.313 195.849 206.439C195.862 206.564 195.903 206.685 195.968 206.793C196.034 206.901 196.122 206.993 196.226 207.063C196.331 207.133 196.449 207.178 196.573 207.196C196.701 207.231 196.834 207.236 196.964 207.213C197.093 207.189 197.216 207.137 197.324 207.061C197.423 206.974 197.506 206.871 197.57 206.755C197.621 206.698 197.648 206.623 197.648 206.546C197.648 206.469 197.621 206.395 197.57 206.337H197.514L197.436 206.066C197.436 206.066 197.436 206.066 197.514 205.998C197.593 205.931 197.514 205.784 197.626 205.705C197.738 205.625 197.492 205.592 197.514 205.569ZM197.044 206.337C196.988 206.609 196.842 206.688 196.652 206.642C196.461 206.597 196.372 206.473 196.428 206.202L196.876 204.168C196.932 203.897 197.066 203.817 197.257 203.863C197.447 203.908 197.537 204.032 197.481 204.303L197.044 206.337Z" fill="#263238"/>
<path d="M198.511 206.968L198.388 207.544L197.816 207.42L197.94 206.844L198.511 206.968Z" fill="#263238"/>
<path d="M203.194 205.966C203.261 205.966 203.261 205.707 203.283 205.616C203.326 205.492 203.343 205.361 203.332 205.23C203.321 205.1 203.282 204.973 203.219 204.858C203.156 204.744 203.069 204.644 202.965 204.566C202.861 204.488 202.741 204.433 202.614 204.404C202.487 204.376 202.356 204.376 202.229 204.402C202.102 204.429 201.982 204.483 201.876 204.56C201.771 204.637 201.684 204.736 201.619 204.85C201.555 204.964 201.515 205.09 201.503 205.221L201.335 205.978C201.48 206.113 201.335 206.328 201.402 206.486C201.469 206.644 201.402 206.486 201.402 206.554C201.402 206.622 201.234 206.656 201.234 206.746C201.234 206.746 201.144 206.882 201.088 206.95C201.053 207.003 201.034 207.066 201.032 207.13C200.989 207.254 200.973 207.386 200.984 207.516C200.995 207.647 201.033 207.774 201.097 207.888C201.16 208.003 201.246 208.102 201.351 208.181C201.455 208.259 201.575 208.314 201.701 208.342C201.828 208.37 201.96 208.371 202.087 208.344C202.214 208.317 202.334 208.263 202.439 208.186C202.544 208.109 202.632 208.01 202.696 207.897C202.761 207.783 202.801 207.656 202.813 207.526L202.947 206.904C202.947 206.746 203.149 206.328 202.947 206.204C202.746 206.079 202.858 206.204 202.835 206.125C202.822 206.099 202.815 206.069 202.815 206.04C202.815 206.01 202.822 205.981 202.835 205.955C202.97 205.842 203.071 206.034 203.194 205.966ZM202.511 206.961C202.511 207.029 202.399 207.051 202.343 207.142C202.3 207.254 202.273 207.372 202.264 207.492C202.208 207.763 202.063 207.831 201.883 207.797C201.704 207.763 201.592 207.628 201.659 207.356C201.659 207.277 201.76 207.051 201.738 206.983C201.715 206.916 201.626 206.983 201.581 206.848C201.547 206.73 201.547 206.604 201.581 206.486C201.586 206.46 201.586 206.433 201.581 206.407C201.581 206.407 201.525 206.305 201.581 206.26C201.581 206.26 201.581 206.113 201.581 206.012C201.939 206.147 201.928 205.594 201.984 205.368C202.04 205.142 202.186 205.017 202.365 205.062C202.544 205.108 202.645 205.232 202.589 205.492C202.513 205.722 202.468 205.961 202.455 206.204C202.501 206.211 202.544 206.234 202.577 206.269C202.609 206.304 202.629 206.348 202.634 206.396C202.623 206.456 202.623 206.517 202.634 206.577C202.634 206.577 202.634 206.678 202.634 206.724C202.634 206.769 202.567 206.724 202.522 206.724C202.491 206.736 202.463 206.756 202.442 206.781C202.42 206.807 202.406 206.838 202.399 206.87L202.511 206.961Z" fill="#263238"/>
<path d="M196.934 197.75L200.719 198.586" stroke="#263238" stroke-linecap="round" stroke-linejoin="round"/>
<path d="M188.332 195.852L195.052 197.343" stroke="#263238" stroke-linecap="round" stroke-linejoin="round"/>
<path d="M187.77 198.469L192.205 199.441" stroke="#263238" stroke-linecap="round" stroke-linejoin="round"/>
<path opacity="0.4" d="M148.961 369.382C154.846 367.829 160.899 367.009 166.982 366.942C177.913 366.67 184.902 368.761 193.862 364.286C202.822 359.811 208.635 367.868 217.203 363.393C225.771 358.919 229.747 351.754 234.697 351.913C239.647 352.071 247.017 272.033 249.391 258.258C251.766 244.483 256.817 206.086 258.553 198.289L248.798 371.823L148.961 369.382Z" fill="white"/>
<path d="M149.433 335.234L176.75 368.761L147.898 366.953L149.433 335.234Z" fill="#2C3E54" stroke="#263238" stroke-linecap="round" stroke-linejoin="round"/>
<path d="M221.929 268.94L221.492 281.698C221.431 283.478 221.024 285.229 220.292 286.85C219.561 288.471 218.52 289.931 217.229 291.146C215.939 292.361 214.423 293.307 212.77 293.932C211.116 294.556 209.357 294.845 207.593 294.783L194.601 294.32C192.832 294.259 191.092 293.846 189.481 293.104C187.871 292.363 186.421 291.307 185.216 289.999C184.011 288.691 183.074 287.155 182.459 285.48C181.844 283.806 181.562 282.025 181.631 280.24L182.214 263.629C182.339 260.036 183.874 256.64 186.48 254.189C189.087 251.737 192.552 250.43 196.113 250.555L209.105 251.007C209.463 251.007 209.822 251.007 210.225 251.086C208.407 252.851 207.259 255.202 206.982 257.732C206.704 260.261 207.314 262.809 208.706 264.932C210.098 267.055 212.183 268.618 214.598 269.35C217.014 270.083 219.608 269.938 221.929 268.94Z" fill="#2C3E54" stroke="#263238" stroke-linecap="round" stroke-linejoin="round"/>
<path d="M224.271 257.919C224.23 259.145 223.83 260.332 223.121 261.329C222.412 262.326 221.425 263.088 220.287 263.519C219.148 263.951 217.908 264.032 216.724 263.752C215.539 263.472 214.464 262.844 213.633 261.948C212.803 261.051 212.254 259.926 212.058 258.715C211.861 257.504 212.024 256.262 212.528 255.145C213.031 254.027 213.851 253.086 214.885 252.439C215.919 251.793 217.119 251.47 218.335 251.511C219.963 251.57 221.501 252.278 222.614 253.478C223.726 254.679 224.322 256.276 224.271 257.919Z" fill="#2C3E54" stroke="#263238" stroke-linecap="round" stroke-linejoin="round"/>
<path opacity="0.4" d="M185.328 281.818L204.424 265.343C204.424 265.343 202.005 256.518 204.424 253.727H195.251C193.042 253.719 190.914 254.563 189.301 256.086C187.687 257.608 186.711 259.695 186.571 261.919L185.328 281.818Z" fill="white"/>
<path opacity="0.4" d="M215.523 258.257L219.611 253.737C219.611 253.737 217.068 252.008 215.523 253.737C213.977 255.466 215.523 258.257 215.523 258.257Z" fill="white"/>
<path d="M213.531 356.695L244.32 358.04" stroke="#263238" stroke-linecap="round" stroke-linejoin="round"/>
<path d="M202.867 359.82L244.318 362.058" stroke="#263238" stroke-linecap="round" stroke-linejoin="round"/>
<path d="M233.465 368.766H244.318" stroke="#263238" stroke-linecap="round" stroke-linejoin="round"/>
<path opacity="0.2" d="M195.735 254.666C179.854 262.372 162.651 235.377 156.625 231.659C155.139 230.713 153.755 229.615 152.492 228.382L155.113 184.086L201.604 185.973C201.302 192.572 201.403 199.861 202.859 204.053C205.995 213.195 211.606 246.97 195.735 254.666Z" fill="black" fill-opacity="0.7"/>
<path opacity="0.4" d="M177.938 256.041C177.938 256.041 190.638 261.601 196.395 258.301C202.152 255.001 208.357 248.696 209.242 234.695C209.242 234.695 216.802 254.414 201.558 260.324C186.315 266.234 177.938 256.041 177.938 256.041Z" fill="white"/>
<path opacity="0.4" d="M172.988 263.931C172.988 263.931 198.748 270.915 209.769 258.281C209.769 258.281 208.291 265.299 196.396 267.321C184.502 269.344 172.988 263.931 172.988 263.931Z" fill="white"/>
<path opacity="0.4" d="M214.417 218.789C212.457 215.274 214.865 246.858 214.865 246.858C214.865 246.858 218.404 225.998 214.417 218.789Z" fill="white"/>
</g>
<path d="M261.655 188.403L250.791 374.57L144.066 371.033L152.489 228.382L155.11 184.086L201.612 185.973L261.655 188.403Z" stroke="#263238" stroke-linecap="round" stroke-linejoin="round"/>
<path opacity="0.4" d="M256.254 375.563L252.367 374.569L261.652 204.086L263.298 215.341L256.254 375.563Z" fill="white"/>
<path d="M195.732 254.663C194.263 255.45 192.63 255.874 190.967 255.899C189.304 255.925 187.659 255.551 186.167 254.809C183.585 253.443 181.502 251.281 180.22 248.64C175.796 240.594 163.823 222.265 161.616 217C159.41 211.734 154.527 196.84 149.655 190.591C144.783 184.343 142.117 174.941 142.117 174.941L140.348 83.75C143.002 96.9371 150.316 111.91 150.316 111.91C156.67 115.246 162.069 120.171 165.996 126.215C167.139 127.444 168.163 128.779 169.053 130.204C176.288 141.504 179.794 161.844 180.175 177.664C180.623 195.552 186.38 203.654 195.687 219.237C204.994 234.82 201.78 251.193 195.732 254.663Z" fill="white"/>
<path opacity="0.4" d="M195.731 254.665C194.257 255.433 192.625 255.846 190.966 255.872C189.306 255.897 187.664 255.534 186.166 254.812C191.251 253.411 197.926 250.778 196.392 246.902C193.984 240.709 186.939 249.896 183.4 246.902C179.861 243.907 167.003 226.731 175.168 219.172C183.333 211.612 180.768 198.933 175.168 195.362C169.568 191.792 173.208 183.283 174.978 169.892C176.098 161.79 172.256 143.439 169.098 130.195C176.333 141.495 179.838 161.835 180.219 177.655C180.667 195.543 186.424 203.645 195.731 219.228C205.038 234.811 201.779 251.41 195.731 254.665Z" fill="#2C3E54"/>
<path d="M140.348 83.6953C143.002 96.8824 150.316 111.855 150.316 111.855C156.67 115.191 162.069 120.117 165.996 126.161C175.303 135.992 179.738 159.688 180.175 177.564C180.612 195.441 186.38 203.554 195.687 219.137C204.994 234.72 202.407 250.969 195.687 254.664C191.005 257.252 184.61 256.687 180.175 248.641C175.74 240.596 163.778 222.267 161.572 217.001C159.365 211.736 154.482 196.842 149.61 190.593C144.738 184.344 142.072 174.943 142.072 174.943" stroke="#263238" stroke-linecap="round" stroke-linejoin="round"/>
<path d="M169.117 215.343C169.117 215.343 176.352 214.688 179.668 211.953" stroke="#263238" stroke-linecap="round" stroke-linejoin="round"/>
<path d="M139.463 176.742C139.463 176.742 138.052 180.132 145.444 183.522" stroke="#263238" stroke-linecap="round" stroke-linejoin="round"/>
</svg>
