<svg xmlns="http://www.w3.org/2000/svg" viewBox="0 0 500 500"><g id="freepik--background-complete--inject-1"><rect y="382.4" width="500" height="0.25" style="fill:#ebebeb"></rect><rect x="416.78" y="398.49" width="33.12" height="0.25" style="fill:#ebebeb"></rect><rect x="322.53" y="401.21" width="8.69" height="0.25" style="fill:#ebebeb"></rect><rect x="396.59" y="389.21" width="19.19" height="0.25" style="fill:#ebebeb"></rect><rect x="52.46" y="390.89" width="43.19" height="0.25" style="fill:#ebebeb"></rect><rect x="104.56" y="390.89" width="6.33" height="0.25" style="fill:#ebebeb"></rect><rect x="131.47" y="395.11" width="93.68" height="0.25" style="fill:#ebebeb"></rect><path d="M237,337.8H43.91a5.71,5.71,0,0,1-5.7-5.71V60.66A5.71,5.71,0,0,1,43.91,55H237a5.71,5.71,0,0,1,5.71,5.71V332.09A5.71,5.71,0,0,1,237,337.8ZM43.91,55.2a5.46,5.46,0,0,0-5.45,5.46V332.09a5.46,5.46,0,0,0,5.45,5.46H237a5.47,5.47,0,0,0,5.46-5.46V60.66A5.47,5.47,0,0,0,237,55.2Z" style="fill:#ebebeb"></path><path d="M453.31,337.8H260.21a5.72,5.72,0,0,1-5.71-5.71V60.66A5.72,5.72,0,0,1,260.21,55h193.1A5.71,5.71,0,0,1,459,60.66V332.09A5.71,5.71,0,0,1,453.31,337.8ZM260.21,55.2a5.47,5.47,0,0,0-5.46,5.46V332.09a5.47,5.47,0,0,0,5.46,5.46h193.1a5.47,5.47,0,0,0,5.46-5.46V60.66a5.47,5.47,0,0,0-5.46-5.46Z" style="fill:#ebebeb"></path><rect x="265.82" y="159.17" width="176.29" height="223.23" style="fill:#f0f0f0"></rect><rect x="272.06" y="167.3" width="163.83" height="47.74" style="fill:#e0e0e0"></rect><rect x="272.06" y="175.03" width="9.31" height="40.01" style="fill:#ebebeb"></rect><rect x="317.06" y="175.03" width="9.31" height="40.01" style="fill:#ebebeb"></rect><rect x="371.61" y="174.53" width="9.31" height="40.01" transform="translate(-27.57 66.73) rotate(-9.78)" style="fill:#ebebeb"></rect><rect x="283.59" y="180.3" width="9.31" height="34.74" style="fill:#ebebeb"></rect><rect x="304.98" y="180.3" width="9.31" height="34.74" style="fill:#ebebeb"></rect><rect x="358.97" y="180.3" width="9.31" height="34.74" style="fill:#ebebeb"></rect><rect x="333.16" y="179.71" width="9.31" height="34.74" transform="translate(-34.7 77.96) rotate(-12.53)" style="fill:#ebebeb"></rect><rect x="296.29" y="173.04" width="4.65" height="41.99" style="fill:#ebebeb"></rect><rect x="351.64" y="173.04" width="4.65" height="41.99" style="fill:#ebebeb"></rect><rect x="272.06" y="222.6" width="163.83" height="47.74" transform="translate(707.94 492.93) rotate(180)" style="fill:#e0e0e0"></rect><rect x="426.58" y="230.32" width="9.31" height="40.01" transform="translate(862.46 500.65) rotate(180)" style="fill:#ebebeb"></rect><rect x="381.58" y="230.32" width="9.31" height="40.01" transform="translate(772.46 500.65) rotate(180)" style="fill:#ebebeb"></rect><rect x="327.02" y="229.82" width="9.31" height="40.01" transform="translate(616.11 552.36) rotate(-170.22)" style="fill:#ebebeb"></rect><rect x="415.04" y="235.6" width="9.31" height="34.74" transform="translate(839.39 505.93) rotate(180)" style="fill:#ebebeb"></rect><rect x="393.65" y="235.6" width="9.31" height="34.74" transform="translate(796.61 505.93) rotate(180)" style="fill:#ebebeb"></rect><rect x="339.66" y="235.6" width="9.31" height="34.74" transform="translate(688.63 505.93) rotate(180)" style="fill:#ebebeb"></rect><rect x="365.47" y="235" width="9.31" height="34.74" transform="matrix(-0.98, -0.22, 0.22, -0.98, 676.7, 579.01)" style="fill:#ebebeb"></rect><rect x="407" y="228.34" width="4.65" height="41.99" transform="translate(818.65 498.67) rotate(180)" style="fill:#ebebeb"></rect><rect x="351.64" y="228.34" width="4.65" height="41.99" transform="translate(707.94 498.67) rotate(180)" style="fill:#ebebeb"></rect><rect x="272.06" y="230.32" width="9.31" height="40.01" style="fill:#ebebeb"></rect><rect x="283.59" y="235.6" width="9.31" height="34.74" style="fill:#ebebeb"></rect><rect x="304.98" y="235.6" width="9.31" height="34.74" style="fill:#ebebeb"></rect><rect x="296.29" y="228.34" width="4.65" height="41.99" style="fill:#ebebeb"></rect><rect x="272.06" y="277.89" width="163.83" height="47.74" style="fill:#e0e0e0"></rect><rect x="366.09" y="285.62" width="9.31" height="40.01" style="fill:#ebebeb"></rect><rect x="420.64" y="285.12" width="9.31" height="40.01" transform="translate(-45.64 76.66) rotate(-9.78)" style="fill:#ebebeb"></rect><rect x="332.62" y="290.89" width="9.31" height="34.74" style="fill:#ebebeb"></rect><rect x="354.01" y="290.89" width="9.31" height="34.74" style="fill:#ebebeb"></rect><rect x="408" y="290.89" width="9.31" height="34.74" style="fill:#ebebeb"></rect><rect x="382.19" y="290.29" width="9.31" height="34.74" transform="translate(-57.52 91.23) rotate(-12.53)" style="fill:#ebebeb"></rect><rect x="345.32" y="283.63" width="4.65" height="41.99" style="fill:#ebebeb"></rect><rect x="400.67" y="283.63" width="4.65" height="41.99" style="fill:#ebebeb"></rect><rect x="313.57" y="285.12" width="9.31" height="40.01" transform="translate(-47.2 58.48) rotate(-9.78)" style="fill:#ebebeb"></rect><rect x="300.93" y="290.89" width="9.31" height="34.74" style="fill:#ebebeb"></rect><rect x="275.12" y="290.29" width="9.31" height="34.74" transform="translate(-60.07 68.01) rotate(-12.53)" style="fill:#ebebeb"></rect><rect x="293.61" y="283.63" width="4.65" height="41.99" style="fill:#ebebeb"></rect><rect x="297.22" y="80.45" width="39.14" height="50.56" style="fill:#e0e0e0"></rect><rect x="300.61" y="83.74" width="32.36" height="43.98" style="fill:#ebebeb"></rect><rect x="306.23" y="87.69" width="21.12" height="2.4" style="fill:#e0e0e0"></rect><path d="M320.63,98.57a3.84,3.84,0,1,1-3.84-3.84A3.84,3.84,0,0,1,320.63,98.57Z" style="fill:#e0e0e0"></path><rect x="309.83" y="107.53" width="13.92" height="2.24" style="fill:#e0e0e0"></rect><rect x="305.91" y="112.81" width="21.76" height="1.8" style="fill:#e0e0e0"></rect><rect x="308.07" y="118.51" width="17.44" height="3.59" style="fill:#e0e0e0"></rect><rect x="371.58" y="80.45" width="39.14" height="50.56" style="fill:#e0e0e0"></rect><rect x="374.97" y="83.74" width="32.36" height="43.98" style="fill:#ebebeb"></rect><rect x="380.59" y="87.69" width="21.12" height="2.4" style="fill:#e0e0e0"></rect><path d="M395,98.57a3.84,3.84,0,1,1-3.84-3.84A3.83,3.83,0,0,1,395,98.57Z" style="fill:#e0e0e0"></path><rect x="384.18" y="107.53" width="13.92" height="2.24" style="fill:#e0e0e0"></rect><rect x="380.27" y="112.81" width="21.76" height="1.8" style="fill:#e0e0e0"></rect><rect x="382.43" y="118.51" width="17.44" height="3.59" style="fill:#e0e0e0"></rect><circle cx="228.25" cy="92.42" r="20.84" style="fill:#e0e0e0"></circle><circle cx="228.25" cy="92.42" r="17.52" style="fill:#ebebeb"></circle><path d="M228.25,93.42h-.08a1,1,0,0,1-.75-.44l-7.25-10.75a1,1,0,0,1,1.66-1.12l6.54,9.7,4.56-5a1,1,0,1,1,1.47,1.36L229,93.09A1,1,0,0,1,228.25,93.42Z" style="fill:#e0e0e0"></path></g><g id="freepik--Shadow--inject-1"><ellipse id="freepik--path--inject-1" cx="250" cy="416.24" rx="193.89" ry="11.32" style="fill:#f5f5f5"></ellipse></g><g id="freepik--Flag--inject-1"><path d="M67.69,318.31h.08l-.08,0Z" style="fill:#39506D"></path><path d="M85,113.15V298.07c0,14.7-15.57,19.73-17.18,20.21,0,0,0,0,0,0,7.5-9.44,3.85-21.59,3.85-21.59h0C59.85,291.83,53,277.15,50.74,267.09c-1.32-6,4.26-22.53,10-37.69,3.9-10.29,7.91-19.94,9.88-25.23,4.26-11.45-5.16-24.76-4.33-40.69a36.08,36.08,0,0,1,1.06-7C72.26,137.4,85,113.15,85,113.15Z" style="fill:#39506D"></path><path d="M67.69,318.31h.08l-.08,0Z" style="opacity:0.2;isolation:isolate"></path><path d="M67.82,318.43s0-.06,0-.06c7.5-9.44,3.85-21.47,3.85-21.47s0,.1,0,.1h0C80.11,298,87.41,304.13,67.82,318.43Z" style="opacity:0.2;isolation:isolate"></path><path d="M85,224.66v43.69a250.76,250.76,0,0,1-24.23-39c3.9-10.29,7.91-19.94,9.88-25.23,4.26-11.45-5.16-24.76-4.33-40.69,2,12.93,5.07,28.4,8.92,34.35C78.69,203.16,82.11,213.8,85,224.66Z" style="opacity:0.2;isolation:isolate"></path><rect x="83.63" y="110.33" width="4.47" height="299.67" style="fill:#263238"></rect><rect x="83.63" y="110.33" width="4.47" height="299.67" style="fill:#fff;opacity:0.2;isolation:isolate"></rect><path d="M79.62,406.54H92.11a18.93,18.93,0,0,0,11.28,7l4.53.91v2H63.82v-2l4.53-.91A18.91,18.91,0,0,0,79.62,406.54Z" style="fill:#263238"></path><path d="M79.62,406.54H92.11a18.93,18.93,0,0,0,11.28,7l4.53.91H63.82l4.53-.91A18.91,18.91,0,0,0,79.62,406.54Z" style="fill:#fff;opacity:0.1;isolation:isolate"></path><path d="M88.77,110.33a2.91,2.91,0,1,1-2.9-2.9A2.9,2.9,0,0,1,88.77,110.33Z" style="fill:#263238"></path><path d="M88.77,110.33a2.91,2.91,0,1,1-2.9-2.9A2.9,2.9,0,0,1,88.77,110.33Z" style="fill:#fff;opacity:0.30000000000000004;isolation:isolate"></path></g><g id="freepik--Character--inject-1"><g id="freepik--group--inject-1"><path d="M167.5,159.8c8.41,2.95,26.41,30.7,24.16,42.95s-25.81,16-25.81,16Z" style="fill:#263238"></path><path d="M167.5,159.8c8.41,2.95,26.41,30.7,24.16,42.95s-25.81,16-25.81,16Z" style="opacity:0.30000000000000004;isolation:isolate"></path><polygon points="162.67 409.03 170.79 409.88 171.21 405 171.06 404.91 172 392.44 172 392.39 164.05 391.53 164.1 391.63 163 404.91 163 405 162.67 409.03" style="fill:#b97964"></polygon><polygon points="122.2 408 130.06 408 130.15 405.6 130.16 405.38 130.52 395.26 130.53 395.04 130.71 390 123 390 123 390.24 122.85 390.44 122 404.87 122 405.1 122.2 408" style="fill:#b97964"></polygon><path d="M131.15,407.53H121.6a.68.68,0,0,0-.67.54l-1.55,7a1.16,1.16,0,0,0,.9,1.37,1.07,1.07,0,0,0,.25,0c3.09-.05,5.34-.24,9.22-.24,2.39,0,9.6.25,12.9.25s3.73-3.26,2.38-3.56c-6.06-1.32-10.62-3.15-12.56-4.89A1.89,1.89,0,0,0,131.15,407.53Z" style="fill:#263238"></path><path d="M171.65,407.28H162.1a.68.68,0,0,0-.67.54l-1.55,7a1.16,1.16,0,0,0,.9,1.37,1.07,1.07,0,0,0,.25,0c3.09-.05,5.34-.24,9.22-.24,2.39,0,9.6.25,12.9.25s3.73-3.26,2.38-3.56c-6.06-1.32-10.62-3.15-12.56-4.89A1.89,1.89,0,0,0,171.65,407.28Z" style="fill:#263238"></path><polygon points="163.03 405 171.22 405 172.31 392.44 164.2 391.6 164.19 391.63 163.04 404.91 163.03 405" style="opacity:0.2;isolation:isolate"></polygon><polygon points="122.46 405.3 130.15 406 130.16 406 130.53 395.47 130.52 395.36 123.15 390.49 122.48 405 122.46 405.3" style="opacity:0.2;isolation:isolate"></polygon><path d="M120.49,403.5l12.06,1.41s8.91-59.64,12.66-85.35c.06-.41.11-.81.17-1.2,1.48-10.15,3.18-29.24,4.62-47.18.82,2.2,1.57,4.63,2.27,7.28.15.55.3,1.11.44,1.68s.33,1.35.49,2,.3,1.32.45,2c.26,1.22.52,2.48.77,3.76,8.1,41.53,8.26,114.89,8.26,114.89l11.4.69c8.3-63.63-.86-140-5.36-167.73a.51.51,0,0,1,0,.13c-.08-.52-.17-1-.25-1.55a.43.43,0,0,0,0-.11c-.22-1.35-.43-2.26-.62-3.26H126.16s0,.36,0,.61,0,.59,0,.94,0,.52,0,.82,0,.34,0,.52,0,.37,0,.57c0,.9,0,1.95,0,3.13,0,.42,0,.86,0,1.32,0,.26,0,.52,0,.78s0,.74,0,1.13c-.13,10.6-.4,28-.81,45,0,.67,0,1.34-.05,2s0,1.06,0,1.59c-.15,6-.32,11.82-.52,17.23s-.41,10.33-.64,14.5c0,.38,0,.78-.06,1.18,0,.57-.06,1.16-.1,1.77C122.39,350,120.49,403.5,120.49,403.5Z" style="fill:#263238"></path><path d="M120.49,403.5l12.06,1.41s8.91-59.64,12.66-85.35c.06-.41.11-.81.17-1.2,1.48-10.15,3.18-29.24,4.62-47.18.82,2.2,1.57,4.63,2.27,7.28.15.55.3,1.11.44,1.68s.33,1.35.49,2,.3,1.32.45,2c.26,1.22.52,2.48.77,3.76,8.1,41.53,8.26,114.89,8.26,114.89l11.4.69c8.3-63.63-.86-140-5.36-167.73a.5.5,0,0,0,0-.12c-.08-.45-.17-.88-.25-1.3a.43.43,0,0,0,0-.11c-.23-1.22-.44-2.26-.62-3.26H126.09s0,.36,0,.61,0,.58,0,.94,0,.52,0,.82v.52c0,.18,0,.37,0,.57,0,.9,0,1.95,0,3.13,0,.42,0,.86,0,1.32,0,.26,0,.52,0,.78s0,.74,0,1.13c-.13,10.6-.4,28-.81,45,0,.67,0,1.34-.05,2s0,1.06,0,1.59c-.15,6-.32,11.82-.52,17.23s-.4,10.52-.64,14.75c0,.3,0,.61-.06.93,0,.57-.06,1.16-.1,1.77C122.39,350,120.49,403.5,120.49,403.5Z" style="opacity:0.30000000000000004;isolation:isolate"></path><path d="M114.16,364.22s31.45,8.21,70.47,0c0,0-1.76-66.36-8.08-133.24-1.4-14.85-3-29.74-4.92-43.92-1.26-9.47-2.63-18.63-4.13-27.26A81.83,81.83,0,0,0,118.86,162s.79,20.31,1.18,49.05c.07,5,.13,10.19.16,15.61C120.52,270.94,119.63,328,114.16,364.22Z" style="fill:#263238"></path><path d="M156.19,124c1.83,3.83-.13,11.88-4.45,13.5-6.65,2.49-5.75-16-5.75-16S154,119.37,156.19,124Z" style="fill:#263238"></path><path d="M132.78,159.25c3.83,3.48,13.21,2.19,13.21,2.19s5.86-1.6,4.63-3.43c-3.45-.57-5.12-2.18-5.81-4.24a10,10,0,0,1-.35-3.94,20.71,20.71,0,0,1,.29-2.2L133.15,139C134.67,144.71,136.53,155.14,132.78,159.25Z" style="fill:#b97964"></path><path d="M135.83,144.5c.46,7,6.18,8.88,9,9.27a10,10,0,0,1-.35-3.94Z" style="opacity:0.2;isolation:isolate"></path><path d="M135.05,146.11a9.83,9.83,0,0,0,11.29,3.81,11,11,0,0,0,6.25-5.09,11.2,11.2,0,0,0,.52-1c2.83-6.62,3.73-18.2-3.27-22.54a10.66,10.66,0,0,0-16.28,8C132.7,137,131.83,141.53,135.05,146.11Z" style="fill:#b97964"></path><path d="M144.84,133.42c-.14.61.14,1.18.55,1.25s.83-.38.94-1-.15-1.18-.55-1.25S145,132.78,144.84,133.42Z" style="fill:#263238"></path><path d="M151.91,134.62c-.15.61.14,1.19.55,1.26s.82-.39.93-1-.14-1.19-.55-1.26S152,134,151.91,134.62Z" style="fill:#263238"></path><path d="M149.61,134.55a22.55,22.55,0,0,0,2.08,5.85,3.66,3.66,0,0,1-3.1,0Z" style="fill:#a24e3f"></path><path d="M143,130.75a.37.37,0,0,0,.38-.08,3,3,0,0,1,2.56-.83.37.37,0,0,0,.18-.72h0a3.69,3.69,0,0,0-3.24,1,.37.37,0,0,0,0,.52h0A.44.44,0,0,0,143,130.75Z" style="fill:#263238"></path><path d="M147,143.51h0a5.69,5.69,0,0,1-4.63-2.52.2.2,0,0,1,.07-.27.19.19,0,0,1,.26.06h0a5.46,5.46,0,0,0,4.31,2.32.2.2,0,0,1,.19.19v0a.19.19,0,0,1-.19.19Z" style="fill:#263238"></path><path d="M155.36,132.7a.43.43,0,0,0,.22.06.37.37,0,0,0,.25-.46h0a3.69,3.69,0,0,0-2.29-2.51.37.37,0,0,0-.46.25h0a.39.39,0,0,0,.25.46h0a3,3,0,0,1,1.78,2A.35.35,0,0,0,155.36,132.7Z" style="fill:#263238"></path><path d="M136.25,116c-6.37,1.67-7.21,10.5-6.31,18.55.78,7,4.47,10.28,4.47,10.28-1.67-3.33-1.17-9.83-.08-10s1,1.09,1,1.09c2.41-1.51,5.92-3.92,3.23-11.17-.32-.86-.56-2.87.61-3.62,2.25-1.46,5.39-.07,5.39-.07s7.82,9.82,11.57,1.69C158,118.72,143.25,114.17,136.25,116Z" style="fill:#263238"></path><path d="M146.34,149.92a11,11,0,0,0,6.25-5.09c-1.89,0-4.64.11-5.36.55S146.35,148.23,146.34,149.92Z" style="opacity:0.2;isolation:isolate"></path><path d="M129.13,135a7.45,7.45,0,0,0,3.56,4.41c2.29,1.23,4-.69,3.84-3.14-.16-2.19-1.51-5.53-4.05-5.72S128.48,132.68,129.13,135Z" style="fill:#b97964"></path><path d="M132.72,157.73s16.68,45.77,9.37,201.77l-14.93-2.12S140.32,244,122.41,159.8Z" style="fill:#39506D"></path><path d="M149,156.1s16.82,45.65,24.38,201.9l9.25-1.5s-10-173.75-24.85-200.16Z" style="fill:#39506D"></path><path d="M162.32,173.91l-9.41-15.32A6.68,6.68,0,0,1,149,156.1c-1.44-2-2.35-10-1.67-10.34s8,.5,8.5,1.48,1.95,9.1,1.95,9.1l10.84,12.71Z" style="fill:#b97964"></path><path d="M159.41,176.75s6,47.55,17.14,54.23c-1.4-14.85-3-29.74-4.92-43.92Z" style="opacity:0.2;isolation:isolate"></path><path d="M134.79,154.24a19.52,19.52,0,0,0-6.88,5.25l4.87,7.64,3.05-1,.33,26.91s15.19,2.58,25.25-2.27l-8.82-25.85,2.63.22s-.58-8.8-10.41-11.33c0,0,2.32,4.54,2,5.17l-8.88.55Z" style="fill:#39506D"></path><path d="M134.79,154.24a19.52,19.52,0,0,0-6.88,5.25l4.87,7.64,3.05-1,.33,26.91s15.19,2.58,25.25-2.27l-8.82-25.85,2.63.22s-.58-8.8-10.41-11.33c0,0,2.32,4.54,2,5.17l-8.88.55Z" style="fill:#fff;opacity:0.6000000000000001;isolation:isolate"></path><polygon points="135.83 166.09 136.54 161.08 132.78 167.13 135.83 166.09" style="opacity:0.2;isolation:isolate"></polygon><polygon points="152.59 164.88 148.59 159.49 155.22 165.1 152.59 164.88" style="opacity:0.2;isolation:isolate"></polygon><path d="M120,211.06c.07,5,.13,10.19.16,15.61,18.48,1.72,28.83-7.92,28.83-7.92Z" style="opacity:0.2;isolation:isolate"></path><path d="M191.78,198.84c-.23-4.74-24.43-33.74-24.43-33.74l-7.94,11.65,15.68,39.63S192.52,214.55,191.78,198.84Z" style="fill:#263238"></path><path d="M169.33,197.23h24.54a.63.63,0,0,1,.63.63v1.83a.62.62,0,0,1-.62.62H169.33a0,0,0,0,1,0,0v-3.08A0,0,0,0,1,169.33,197.23Z" transform="translate(451.2 208.03) rotate(134.43)" style="fill:#39506D"></path><path d="M194.14,197.07l5.42-5.54a26.45,26.45,0,0,0-10.22-10L183.91,187A26.43,26.43,0,0,0,194.14,197.07Z" style="fill:#39506D"></path><path d="M194.14,197.07l5.42-5.54a26.45,26.45,0,0,0-10.22-10L183.91,187A26.43,26.43,0,0,0,194.14,197.07Z" style="opacity:0.2;isolation:isolate"></path><rect x="181.46" y="182.97" width="10.14" height="2.43" rx="0.5" transform="translate(448.64 179.93) rotate(134.43)" style="fill:#39506D"></rect><rect x="191.87" y="193.18" width="10.14" height="2.43" rx="0.5" transform="translate(473.63 189.85) rotate(134.43)" style="fill:#39506D"></rect><path d="M153.91,198.64l17.94-1.25a6.67,6.67,0,0,1,4-2.28c2.49-.34,9.94,2.53,9.94,3.3s-4.14,6.85-5.25,6.85-9-2.49-9-2.49l-16.28,3.73Z" style="fill:#b97964"></path><path d="M118.86,162c-9.2,4.74-19.7,36.49-12,50s48.94,10.74,48.94,10.74L164.66,197s-32.5,4.23-39.25-.64c-4.16-3-4.36-16.28-4.92-25.32A33.81,33.81,0,0,0,118.86,162Z" style="fill:#263238"></path><path d="M118.86,162c-9.2,4.74-19.7,36.49-12,50s48.94,10.74,48.94,10.74L164.66,197s-32.5,4.23-39.25-.64c-4.16-3-4.36-16.28-4.92-25.32A33.81,33.81,0,0,0,118.86,162Z" style="opacity:0.30000000000000004;isolation:isolate"></path><path d="M148.12,137.1a1.94,1.94,0,1,1-1.94-1.93A1.94,1.94,0,0,1,148.12,137.1Z" style="fill:none;stroke:#263238;stroke-miterlimit:10;stroke-width:0.5px"></path><path d="M155,138.07a1.94,1.94,0,1,1-1.93-1.94A1.92,1.92,0,0,1,155,138.07Z" style="fill:none;stroke:#263238;stroke-miterlimit:10;stroke-width:0.5px"></path><line x1="136.54" y1="132.76" x2="144.25" y2="136.75" style="fill:none;stroke:#263238;stroke-miterlimit:10;stroke-width:0.5px"></line><path d="M148.12,137.5s2-1.13,3,.57" style="fill:none;stroke:#263238;stroke-miterlimit:10;stroke-width:0.5px"></path></g></g><g id="freepik--Balance--inject-1"><rect x="326.67" y="192.14" width="4.28" height="6.91" style="fill:#39506D"></rect><rect x="326.67" y="192.14" width="4.28" height="6.91" style="opacity:0.2;isolation:isolate"></rect><rect x="325.69" y="249.91" width="6.23" height="156.78" transform="translate(657.62 656.61) rotate(180)" style="fill:#263238"></rect><path d="M344,377.28a14.76,14.76,0,0,0-7-12.55l-.48-8.73H321.15l-.49,8.73a15,15,0,0,0-1.33,24.43l-.48,8.84h19.92l-.48-8.9A15.11,15.11,0,0,0,344,377.28Z" style="fill:#39506D"></path><polygon points="336.95 365 336.47 356 321.15 356 320.66 365 336.95 365" style="fill:#fff;opacity:0.1;isolation:isolate"></polygon><polygon points="319.33 389.79 318.85 398.86 338.77 398.86 338.29 389.77 319.33 389.79" style="opacity:0.2;isolation:isolate"></polygon><path d="M314.7,394h28.21a42.82,42.82,0,0,0,25.46,15.8l10.23,2v4.61H279v-4.61l10.23-2A42.79,42.79,0,0,0,314.7,394Z" style="fill:#263238"></path><path d="M314.7,394h28.21a42.82,42.82,0,0,0,25.46,15.8l10.23,2H279l10.23-2A42.79,42.79,0,0,0,314.7,394Z" style="fill:#fff;opacity:0.1;isolation:isolate"></path><rect x="324.1" y="219.93" width="9.42" height="34.39" style="fill:#39506D"></rect><rect x="324.1" y="219.93" width="9.42" height="34.39" style="opacity:0.2;isolation:isolate"></rect><path d="M331.1,193.54a2.52,2.52,0,0,0,.29-1.16,2.58,2.58,0,0,0-5.16,0,2.65,2.65,0,0,0,.28,1.16Z" style="fill:#39506D"></path><path d="M449.22,333.62a1.65,1.65,0,0,1,.66-2.19c.71-.27,1.57.29,1.92,1.25a1.43,1.43,0,1,1-2.58.94Z" style="fill:none;stroke:#263238;stroke-miterlimit:10"></path><line x1="450.11" y1="332.05" x2="448.74" y2="328.3" style="fill:none;stroke:#263238;stroke-linecap:round;stroke-linejoin:round"></line><path d="M447.16,328a1.43,1.43,0,1,1,1.92,1.26C448.37,329.5,447.51,328.94,447.16,328Z" style="fill:none;stroke:#263238;stroke-miterlimit:10"></path><line x1="448.05" y1="326.42" x2="446.68" y2="322.66" style="fill:none;stroke:#263238;stroke-linecap:round;stroke-linejoin:round"></line><path d="M445.1,322.35a1.66,1.66,0,0,1,.66-2.2c.71-.26,1.57.3,1.92,1.26a1.43,1.43,0,1,1-2.58.94Z" style="fill:none;stroke:#263238;stroke-miterlimit:10"></path><line x1="445.99" y1="320.78" x2="444.62" y2="317.03" style="fill:none;stroke:#263238;stroke-linecap:round;stroke-linejoin:round"></line><path d="M443,316.71A1.43,1.43,0,1,1,445,318C444.25,318.23,443.39,317.67,443,316.71Z" style="fill:none;stroke:#263238;stroke-miterlimit:10"></path><line x1="443.93" y1="315.15" x2="442.56" y2="311.39" style="fill:none;stroke:#263238;stroke-linecap:round;stroke-linejoin:round"></line><path d="M441,311.08a1.43,1.43,0,1,1,1.92,1.25A1.66,1.66,0,0,1,441,311.08Z" style="fill:none;stroke:#263238;stroke-miterlimit:10"></path><line x1="441.87" y1="309.51" x2="440.5" y2="305.75" style="fill:none;stroke:#263238;stroke-linecap:round;stroke-linejoin:round"></line><path d="M438.92,305.44a1.43,1.43,0,1,1,1.92,1.25A1.65,1.65,0,0,1,438.92,305.44Z" style="fill:none;stroke:#263238;stroke-miterlimit:10"></path><line x1="439.81" y1="303.88" x2="438.44" y2="300.12" style="fill:none;stroke:#263238;stroke-linecap:round;stroke-linejoin:round"></line><path d="M436.86,299.81a1.43,1.43,0,1,1,1.92,1.25A1.66,1.66,0,0,1,436.86,299.81Z" style="fill:none;stroke:#263238;stroke-miterlimit:10"></path><line x1="437.75" y1="298.24" x2="436.38" y2="294.48" style="fill:none;stroke:#263238;stroke-linecap:round;stroke-linejoin:round"></line><path d="M434.8,294.17a1.43,1.43,0,1,1,1.92,1.25A1.65,1.65,0,0,1,434.8,294.17Z" style="fill:none;stroke:#263238;stroke-miterlimit:10"></path><line x1="435.69" y1="292.61" x2="434.32" y2="288.85" style="fill:none;stroke:#263238;stroke-linecap:round;stroke-linejoin:round"></line><path d="M432.74,288.54a1.44,1.44,0,1,1,1.92,1.25A1.66,1.66,0,0,1,432.74,288.54Z" style="fill:none;stroke:#263238;stroke-miterlimit:10"></path><line x1="433.63" y1="286.97" x2="432.26" y2="283.21" style="fill:none;stroke:#263238;stroke-linecap:round;stroke-linejoin:round"></line><path d="M430.68,282.9a1.65,1.65,0,0,1,.67-2.19c.71-.27,1.57.3,1.92,1.25a1.43,1.43,0,1,1-2.59.94Z" style="fill:none;stroke:#263238;stroke-miterlimit:10"></path><line x1="431.58" y1="281.33" x2="430.2" y2="277.58" style="fill:none;stroke:#263238;stroke-linecap:round;stroke-linejoin:round"></line><path d="M428.62,277.27a1.44,1.44,0,1,1,1.93,1.25A1.66,1.66,0,0,1,428.62,277.27Z" style="fill:none;stroke:#263238;stroke-miterlimit:10"></path><line x1="429.52" y1="275.7" x2="428.14" y2="271.94" style="fill:none;stroke:#263238;stroke-linecap:round;stroke-linejoin:round"></line><path d="M426.57,271.63a1.66,1.66,0,0,1,.66-2.2c.71-.26,1.57.3,1.92,1.26a1.43,1.43,0,1,1-2.58.94Z" style="fill:none;stroke:#263238;stroke-miterlimit:10"></path><line x1="427.46" y1="270.06" x2="426.08" y2="266.31" style="fill:none;stroke:#263238;stroke-linecap:round;stroke-linejoin:round"></line><path d="M424.51,266a1.64,1.64,0,0,1,.66-2.19,1.92,1.92,0,1,1-.66,2.19Z" style="fill:none;stroke:#263238;stroke-miterlimit:10"></path><line x1="425.4" y1="264.43" x2="424.02" y2="260.67" style="fill:none;stroke:#263238;stroke-linecap:round;stroke-linejoin:round"></line><path d="M422.45,260.36a1.43,1.43,0,1,1,1.92,1.25A1.66,1.66,0,0,1,422.45,260.36Z" style="fill:none;stroke:#263238;stroke-miterlimit:10"></path><line x1="423.34" y1="258.79" x2="421.97" y2="255.03" style="fill:none;stroke:#263238;stroke-linecap:round;stroke-linejoin:round"></line><path d="M420.39,254.72a1.43,1.43,0,1,1,1.92,1.25A1.65,1.65,0,0,1,420.39,254.72Z" style="fill:none;stroke:#263238;stroke-miterlimit:10"></path><line x1="421.28" y1="253.16" x2="419.91" y2="249.4" style="fill:none;stroke:#263238;stroke-linecap:round;stroke-linejoin:round"></line><path d="M418.33,249.09a1.43,1.43,0,1,1,1.92,1.25A1.66,1.66,0,0,1,418.33,249.09Z" style="fill:none;stroke:#263238;stroke-miterlimit:10"></path><line x1="419.22" y1="247.52" x2="417.85" y2="243.76" style="fill:none;stroke:#263238;stroke-linecap:round;stroke-linejoin:round"></line><path d="M416.27,243.45a1.43,1.43,0,1,1,1.92,1.25A1.65,1.65,0,0,1,416.27,243.45Z" style="fill:none;stroke:#263238;stroke-miterlimit:10"></path><line x1="417.16" y1="241.89" x2="415.79" y2="238.13" style="fill:none;stroke:#263238;stroke-linecap:round;stroke-linejoin:round"></line><path d="M414.21,237.82a1.43,1.43,0,1,1,1.92,1.25A1.66,1.66,0,0,1,414.21,237.82Z" style="fill:none;stroke:#263238;stroke-miterlimit:10"></path><line x1="415.1" y1="236.25" x2="413.73" y2="232.49" style="fill:none;stroke:#263238;stroke-linecap:round;stroke-linejoin:round"></line><path d="M377.78,333.62a1.65,1.65,0,0,0-.66-2.19c-.71-.27-1.57.29-1.92,1.25a1.43,1.43,0,1,0,2.58.94Z" style="fill:none;stroke:#263238;stroke-miterlimit:10"></path><line x1="376.89" y1="332.05" x2="378.26" y2="328.3" style="fill:none;stroke:#263238;stroke-linecap:round;stroke-linejoin:round"></line><path d="M379.84,328a1.43,1.43,0,1,0-1.92,1.26C378.63,329.5,379.49,328.94,379.84,328Z" style="fill:none;stroke:#263238;stroke-miterlimit:10"></path><line x1="378.95" y1="326.42" x2="380.32" y2="322.66" style="fill:none;stroke:#263238;stroke-linecap:round;stroke-linejoin:round"></line><path d="M381.9,322.35a1.66,1.66,0,0,0-.66-2.2c-.71-.26-1.57.3-1.92,1.26a1.43,1.43,0,1,0,2.58.94Z" style="fill:none;stroke:#263238;stroke-miterlimit:10"></path><line x1="381.01" y1="320.78" x2="382.38" y2="317.03" style="fill:none;stroke:#263238;stroke-linecap:round;stroke-linejoin:round"></line><path d="M384,316.71A1.43,1.43,0,1,0,382,318C382.75,318.23,383.61,317.67,384,316.71Z" style="fill:none;stroke:#263238;stroke-miterlimit:10"></path><line x1="383.07" y1="315.15" x2="384.44" y2="311.39" style="fill:none;stroke:#263238;stroke-linecap:round;stroke-linejoin:round"></line><path d="M386,311.08a1.43,1.43,0,1,0-1.92,1.25A1.66,1.66,0,0,0,386,311.08Z" style="fill:none;stroke:#263238;stroke-miterlimit:10"></path><line x1="385.13" y1="309.51" x2="386.5" y2="305.75" style="fill:none;stroke:#263238;stroke-linecap:round;stroke-linejoin:round"></line><path d="M388.08,305.44a1.43,1.43,0,1,0-1.92,1.25A1.65,1.65,0,0,0,388.08,305.44Z" style="fill:none;stroke:#263238;stroke-miterlimit:10"></path><line x1="387.19" y1="303.88" x2="388.56" y2="300.12" style="fill:none;stroke:#263238;stroke-linecap:round;stroke-linejoin:round"></line><path d="M390.14,299.81a1.44,1.44,0,1,0-1.92,1.25A1.66,1.66,0,0,0,390.14,299.81Z" style="fill:none;stroke:#263238;stroke-miterlimit:10"></path><line x1="389.25" y1="298.24" x2="390.62" y2="294.48" style="fill:none;stroke:#263238;stroke-linecap:round;stroke-linejoin:round"></line><path d="M392.2,294.17a1.43,1.43,0,1,0-1.92,1.25A1.66,1.66,0,0,0,392.2,294.17Z" style="fill:none;stroke:#263238;stroke-miterlimit:10"></path><line x1="391.31" y1="292.61" x2="392.68" y2="288.85" style="fill:none;stroke:#263238;stroke-linecap:round;stroke-linejoin:round"></line><path d="M394.26,288.54a1.44,1.44,0,1,0-1.92,1.25A1.66,1.66,0,0,0,394.26,288.54Z" style="fill:none;stroke:#263238;stroke-miterlimit:10"></path><line x1="393.36" y1="286.97" x2="394.74" y2="283.21" style="fill:none;stroke:#263238;stroke-linecap:round;stroke-linejoin:round"></line><path d="M396.32,282.9a1.65,1.65,0,0,0-.67-2.19c-.71-.27-1.57.3-1.92,1.25a1.43,1.43,0,1,0,2.59.94Z" style="fill:none;stroke:#263238;stroke-miterlimit:10"></path><line x1="395.42" y1="281.33" x2="396.8" y2="277.58" style="fill:none;stroke:#263238;stroke-linecap:round;stroke-linejoin:round"></line><path d="M398.38,277.27a1.44,1.44,0,1,0-1.93,1.25A1.66,1.66,0,0,0,398.38,277.27Z" style="fill:none;stroke:#263238;stroke-miterlimit:10"></path><line x1="397.48" y1="275.7" x2="398.86" y2="271.94" style="fill:none;stroke:#263238;stroke-linecap:round;stroke-linejoin:round"></line><path d="M400.43,271.63a1.66,1.66,0,0,0-.66-2.2c-.71-.26-1.57.3-1.92,1.26a1.43,1.43,0,1,0,2.58.94Z" style="fill:none;stroke:#263238;stroke-miterlimit:10"></path><line x1="399.54" y1="270.06" x2="400.92" y2="266.31" style="fill:none;stroke:#263238;stroke-linecap:round;stroke-linejoin:round"></line><path d="M402.49,266a1.64,1.64,0,0,0-.66-2.19,1.92,1.92,0,1,0,.66,2.19Z" style="fill:none;stroke:#263238;stroke-miterlimit:10"></path><line x1="401.6" y1="264.43" x2="402.98" y2="260.67" style="fill:none;stroke:#263238;stroke-linecap:round;stroke-linejoin:round"></line><path d="M404.55,260.36a1.43,1.43,0,1,0-1.92,1.25A1.66,1.66,0,0,0,404.55,260.36Z" style="fill:none;stroke:#263238;stroke-miterlimit:10"></path><line x1="403.66" y1="258.79" x2="405.03" y2="255.03" style="fill:none;stroke:#263238;stroke-linecap:round;stroke-linejoin:round"></line><path d="M406.61,254.72a1.43,1.43,0,1,0-1.92,1.25A1.65,1.65,0,0,0,406.61,254.72Z" style="fill:none;stroke:#263238;stroke-miterlimit:10"></path><line x1="405.72" y1="253.16" x2="407.09" y2="249.4" style="fill:none;stroke:#263238;stroke-linecap:round;stroke-linejoin:round"></line><path d="M408.67,249.09a1.43,1.43,0,1,0-1.92,1.25A1.66,1.66,0,0,0,408.67,249.09Z" style="fill:none;stroke:#263238;stroke-miterlimit:10"></path><line x1="407.78" y1="247.52" x2="409.15" y2="243.76" style="fill:none;stroke:#263238;stroke-linecap:round;stroke-linejoin:round"></line><path d="M410.73,243.45a1.43,1.43,0,1,0-1.92,1.25A1.65,1.65,0,0,0,410.73,243.45Z" style="fill:none;stroke:#263238;stroke-miterlimit:10"></path><line x1="409.84" y1="241.89" x2="411.21" y2="238.13" style="fill:none;stroke:#263238;stroke-linecap:round;stroke-linejoin:round"></line><path d="M412.79,237.82a1.43,1.43,0,1,0-1.92,1.25A1.66,1.66,0,0,0,412.79,237.82Z" style="fill:none;stroke:#263238;stroke-miterlimit:10"></path><line x1="411.9" y1="236.25" x2="413.27" y2="232.49" style="fill:none;stroke:#263238;stroke-linecap:round;stroke-linejoin:round"></line><path d="M412.12,337.17c0-1,.62-1.84,1.38-1.84s1.37.82,1.37,1.84-.61,1.83-1.37,1.83S412.12,338.18,412.12,337.17Z" style="fill:none;stroke:#263238;stroke-miterlimit:10"></path><line x1="413.5" y1="336" x2="413.5" y2="332" style="fill:none;stroke:#263238;stroke-linecap:round;stroke-linejoin:round"></line><path d="M412.12,331.17c0-1,.62-1.84,1.38-1.84s1.37.82,1.37,1.84-.61,1.83-1.37,1.83S412.12,332.18,412.12,331.17Z" style="fill:none;stroke:#263238;stroke-miterlimit:10"></path><line x1="413.5" y1="330" x2="413.5" y2="326" style="fill:none;stroke:#263238;stroke-linecap:round;stroke-linejoin:round"></line><path d="M412.12,325.17c0-1,.62-1.84,1.38-1.84s1.37.82,1.37,1.84-.61,1.83-1.37,1.83S412.12,326.18,412.12,325.17Z" style="fill:none;stroke:#263238;stroke-miterlimit:10"></path><line x1="413.5" y1="324" x2="413.5" y2="320" style="fill:none;stroke:#263238;stroke-linecap:round;stroke-linejoin:round"></line><path d="M412.12,319.17c0-1,.62-1.84,1.38-1.84s1.37.82,1.37,1.84-.61,1.83-1.37,1.83S412.12,320.18,412.12,319.17Z" style="fill:none;stroke:#263238;stroke-miterlimit:10"></path><line x1="413.5" y1="318" x2="413.5" y2="314" style="fill:none;stroke:#263238;stroke-linecap:round;stroke-linejoin:round"></line><path d="M412.12,313.17c0-1,.62-1.84,1.38-1.84s1.37.82,1.37,1.84-.61,1.83-1.37,1.83S412.12,314.18,412.12,313.17Z" style="fill:none;stroke:#263238;stroke-miterlimit:10"></path><line x1="413.5" y1="312" x2="413.5" y2="308" style="fill:none;stroke:#263238;stroke-linecap:round;stroke-linejoin:round"></line><path d="M412.12,307.17c0-1,.62-1.84,1.38-1.84s1.37.82,1.37,1.84-.61,1.83-1.37,1.83S412.12,308.18,412.12,307.17Z" style="fill:none;stroke:#263238;stroke-miterlimit:10"></path><line x1="413.5" y1="306" x2="413.5" y2="302" style="fill:none;stroke:#263238;stroke-linecap:round;stroke-linejoin:round"></line><path d="M412.12,301.17c0-1,.62-1.84,1.38-1.84s1.37.82,1.37,1.84-.61,1.83-1.37,1.83S412.12,302.18,412.12,301.17Z" style="fill:none;stroke:#263238;stroke-miterlimit:10"></path><line x1="413.5" y1="300" x2="413.5" y2="296" style="fill:none;stroke:#263238;stroke-linecap:round;stroke-linejoin:round"></line><path d="M412.12,295.17c0-1,.62-1.84,1.38-1.84s1.37.82,1.37,1.84-.61,1.83-1.37,1.83S412.12,296.18,412.12,295.17Z" style="fill:none;stroke:#263238;stroke-miterlimit:10"></path><line x1="413.5" y1="294" x2="413.5" y2="290" style="fill:none;stroke:#263238;stroke-linecap:round;stroke-linejoin:round"></line><path d="M412.12,289.17c0-1,.62-1.84,1.38-1.84s1.37.82,1.37,1.84-.61,1.83-1.37,1.83S412.12,290.18,412.12,289.17Z" style="fill:none;stroke:#263238;stroke-miterlimit:10"></path><line x1="413.5" y1="288" x2="413.5" y2="284" style="fill:none;stroke:#263238;stroke-linecap:round;stroke-linejoin:round"></line><path d="M412.12,283.17c0-1,.62-1.84,1.38-1.84s1.37.82,1.37,1.84-.61,1.83-1.37,1.83S412.12,284.18,412.12,283.17Z" style="fill:none;stroke:#263238;stroke-miterlimit:10"></path><line x1="413.5" y1="282" x2="413.5" y2="278" style="fill:none;stroke:#263238;stroke-linecap:round;stroke-linejoin:round"></line><path d="M412.12,277.17c0-1,.62-1.84,1.38-1.84s1.37.82,1.37,1.84-.61,1.83-1.37,1.83S412.12,278.18,412.12,277.17Z" style="fill:none;stroke:#263238;stroke-miterlimit:10"></path><line x1="413.5" y1="276" x2="413.5" y2="272" style="fill:none;stroke:#263238;stroke-linecap:round;stroke-linejoin:round"></line><path d="M412.12,271.17c0-1,.62-1.84,1.38-1.84s1.37.82,1.37,1.84-.61,1.83-1.37,1.83S412.12,272.18,412.12,271.17Z" style="fill:none;stroke:#263238;stroke-miterlimit:10"></path><line x1="413.5" y1="270" x2="413.5" y2="266" style="fill:none;stroke:#263238;stroke-linecap:round;stroke-linejoin:round"></line><path d="M412.12,265.17c0-1,.62-1.84,1.38-1.84s1.37.82,1.37,1.84-.61,1.83-1.37,1.83S412.12,266.18,412.12,265.17Z" style="fill:none;stroke:#263238;stroke-miterlimit:10"></path><line x1="413.5" y1="264" x2="413.5" y2="260" style="fill:none;stroke:#263238;stroke-linecap:round;stroke-linejoin:round"></line><path d="M412.12,259.17c0-1,.62-1.84,1.38-1.84s1.37.82,1.37,1.84-.61,1.83-1.37,1.83S412.12,260.18,412.12,259.17Z" style="fill:none;stroke:#263238;stroke-miterlimit:10"></path><line x1="413.5" y1="258" x2="413.5" y2="254" style="fill:none;stroke:#263238;stroke-linecap:round;stroke-linejoin:round"></line><path d="M412.12,253.17c0-1,.62-1.84,1.38-1.84s1.37.82,1.37,1.84-.61,1.83-1.37,1.83S412.12,254.18,412.12,253.17Z" style="fill:none;stroke:#263238;stroke-miterlimit:10"></path><line x1="413.5" y1="252" x2="413.5" y2="248" style="fill:none;stroke:#263238;stroke-linecap:round;stroke-linejoin:round"></line><path d="M412.12,247.17c0-1,.62-1.84,1.38-1.84s1.37.82,1.37,1.84-.61,1.83-1.37,1.83S412.12,248.18,412.12,247.17Z" style="fill:none;stroke:#263238;stroke-miterlimit:10"></path><line x1="413.5" y1="246" x2="413.5" y2="242" style="fill:none;stroke:#263238;stroke-linecap:round;stroke-linejoin:round"></line><path d="M412.12,241.17c0-1,.62-1.84,1.38-1.84s1.37.82,1.37,1.84-.61,1.83-1.37,1.83S412.12,242.18,412.12,241.17Z" style="fill:none;stroke:#263238;stroke-miterlimit:10"></path><line x1="413.5" y1="240" x2="413.5" y2="236" style="fill:none;stroke:#263238;stroke-linecap:round;stroke-linejoin:round"></line><path d="M412.12,235.17c0-1,.62-1.84,1.38-1.84s1.37.82,1.37,1.84-.61,1.83-1.37,1.83S412.12,236.18,412.12,235.17Z" style="fill:none;stroke:#263238;stroke-miterlimit:10"></path><line x1="413.5" y1="234" x2="413.5" y2="230" style="fill:none;stroke:#263238;stroke-linecap:round;stroke-linejoin:round"></line><path d="M412.12,229.17c0-1,.62-1.84,1.38-1.84s1.37.82,1.37,1.84-.61,1.83-1.37,1.83S412.12,230.18,412.12,229.17Z" style="fill:none;stroke:#263238;stroke-miterlimit:10"></path><line x1="413.5" y1="228" x2="413.5" y2="224" style="fill:none;stroke:#263238;stroke-linecap:round;stroke-linejoin:round"></line><path d="M372.3,333c0,3,18.45,7.62,41.2,7.62S454.7,336,454.7,333Z" style="fill:#39506D"></path><path d="M454.7,333c0,3-18.45,7.62-41.2,7.62S372.3,336,372.3,333Z" style="opacity:0.2;isolation:isolate"></path><path d="M280.22,333.62a1.65,1.65,0,0,1,.66-2.19c.71-.27,1.57.29,1.92,1.25a1.43,1.43,0,1,1-2.58.94Z" style="fill:none;stroke:#263238;stroke-miterlimit:10"></path><line x1="281.11" y1="332.05" x2="279.74" y2="328.3" style="fill:none;stroke:#263238;stroke-linecap:round;stroke-linejoin:round"></line><path d="M278.16,328a1.43,1.43,0,1,1,1.92,1.26C279.37,329.5,278.51,328.94,278.16,328Z" style="fill:none;stroke:#263238;stroke-miterlimit:10"></path><line x1="279.05" y1="326.42" x2="277.68" y2="322.66" style="fill:none;stroke:#263238;stroke-linecap:round;stroke-linejoin:round"></line><path d="M276.1,322.35a1.66,1.66,0,0,1,.66-2.2c.71-.26,1.57.3,1.92,1.26a1.43,1.43,0,1,1-2.58.94Z" style="fill:none;stroke:#263238;stroke-miterlimit:10"></path><line x1="276.99" y1="320.78" x2="275.62" y2="317.03" style="fill:none;stroke:#263238;stroke-linecap:round;stroke-linejoin:round"></line><path d="M274,316.71A1.43,1.43,0,1,1,276,318C275.25,318.23,274.39,317.67,274,316.71Z" style="fill:none;stroke:#263238;stroke-miterlimit:10"></path><line x1="274.93" y1="315.15" x2="273.56" y2="311.39" style="fill:none;stroke:#263238;stroke-linecap:round;stroke-linejoin:round"></line><path d="M272,311.08a1.43,1.43,0,1,1,1.92,1.25A1.66,1.66,0,0,1,272,311.08Z" style="fill:none;stroke:#263238;stroke-miterlimit:10"></path><line x1="272.87" y1="309.51" x2="271.5" y2="305.75" style="fill:none;stroke:#263238;stroke-linecap:round;stroke-linejoin:round"></line><path d="M269.92,305.44a1.43,1.43,0,1,1,1.92,1.25A1.65,1.65,0,0,1,269.92,305.44Z" style="fill:none;stroke:#263238;stroke-miterlimit:10"></path><line x1="270.81" y1="303.88" x2="269.44" y2="300.12" style="fill:none;stroke:#263238;stroke-linecap:round;stroke-linejoin:round"></line><path d="M267.86,299.81a1.43,1.43,0,1,1,1.92,1.25A1.66,1.66,0,0,1,267.86,299.81Z" style="fill:none;stroke:#263238;stroke-miterlimit:10"></path><line x1="268.75" y1="298.24" x2="267.38" y2="294.48" style="fill:none;stroke:#263238;stroke-linecap:round;stroke-linejoin:round"></line><path d="M265.8,294.17a1.43,1.43,0,1,1,1.92,1.25A1.65,1.65,0,0,1,265.8,294.17Z" style="fill:none;stroke:#263238;stroke-miterlimit:10"></path><line x1="266.69" y1="292.61" x2="265.32" y2="288.85" style="fill:none;stroke:#263238;stroke-linecap:round;stroke-linejoin:round"></line><path d="M263.74,288.54a1.44,1.44,0,1,1,1.92,1.25A1.66,1.66,0,0,1,263.74,288.54Z" style="fill:none;stroke:#263238;stroke-miterlimit:10"></path><line x1="264.63" y1="286.97" x2="263.26" y2="283.21" style="fill:none;stroke:#263238;stroke-linecap:round;stroke-linejoin:round"></line><path d="M261.68,282.9a1.65,1.65,0,0,1,.67-2.19c.71-.27,1.57.3,1.92,1.25a1.43,1.43,0,1,1-2.59.94Z" style="fill:none;stroke:#263238;stroke-miterlimit:10"></path><line x1="262.58" y1="281.33" x2="261.2" y2="277.58" style="fill:none;stroke:#263238;stroke-linecap:round;stroke-linejoin:round"></line><path d="M259.62,277.27a1.44,1.44,0,1,1,1.93,1.25A1.66,1.66,0,0,1,259.62,277.27Z" style="fill:none;stroke:#263238;stroke-miterlimit:10"></path><line x1="260.52" y1="275.7" x2="259.14" y2="271.94" style="fill:none;stroke:#263238;stroke-linecap:round;stroke-linejoin:round"></line><path d="M257.57,271.63a1.66,1.66,0,0,1,.66-2.2c.71-.26,1.57.3,1.92,1.26a1.43,1.43,0,1,1-2.58.94Z" style="fill:none;stroke:#263238;stroke-miterlimit:10"></path><line x1="258.46" y1="270.06" x2="257.08" y2="266.31" style="fill:none;stroke:#263238;stroke-linecap:round;stroke-linejoin:round"></line><path d="M255.51,266a1.64,1.64,0,0,1,.66-2.19,1.92,1.92,0,1,1-.66,2.19Z" style="fill:none;stroke:#263238;stroke-miterlimit:10"></path><line x1="256.4" y1="264.43" x2="255.02" y2="260.67" style="fill:none;stroke:#263238;stroke-linecap:round;stroke-linejoin:round"></line><path d="M253.45,260.36a1.43,1.43,0,1,1,1.92,1.25A1.66,1.66,0,0,1,253.45,260.36Z" style="fill:none;stroke:#263238;stroke-miterlimit:10"></path><line x1="254.34" y1="258.79" x2="252.97" y2="255.03" style="fill:none;stroke:#263238;stroke-linecap:round;stroke-linejoin:round"></line><path d="M251.39,254.72a1.43,1.43,0,1,1,1.92,1.25A1.65,1.65,0,0,1,251.39,254.72Z" style="fill:none;stroke:#263238;stroke-miterlimit:10"></path><line x1="252.28" y1="253.16" x2="250.91" y2="249.4" style="fill:none;stroke:#263238;stroke-linecap:round;stroke-linejoin:round"></line><path d="M249.33,249.09a1.43,1.43,0,1,1,1.92,1.25A1.66,1.66,0,0,1,249.33,249.09Z" style="fill:none;stroke:#263238;stroke-miterlimit:10"></path><line x1="250.22" y1="247.52" x2="248.85" y2="243.76" style="fill:none;stroke:#263238;stroke-linecap:round;stroke-linejoin:round"></line><path d="M247.27,243.45a1.43,1.43,0,1,1,1.92,1.25A1.65,1.65,0,0,1,247.27,243.45Z" style="fill:none;stroke:#263238;stroke-miterlimit:10"></path><line x1="248.16" y1="241.89" x2="246.79" y2="238.13" style="fill:none;stroke:#263238;stroke-linecap:round;stroke-linejoin:round"></line><path d="M245.21,237.82a1.43,1.43,0,1,1,1.92,1.25A1.66,1.66,0,0,1,245.21,237.82Z" style="fill:none;stroke:#263238;stroke-miterlimit:10"></path><line x1="246.1" y1="236.25" x2="244.73" y2="232.49" style="fill:none;stroke:#263238;stroke-linecap:round;stroke-linejoin:round"></line><path d="M208.78,333.62a1.65,1.65,0,0,0-.66-2.19c-.71-.27-1.57.29-1.92,1.25a1.43,1.43,0,1,0,2.58.94Z" style="fill:none;stroke:#263238;stroke-miterlimit:10"></path><line x1="207.89" y1="332.05" x2="209.26" y2="328.3" style="fill:none;stroke:#263238;stroke-linecap:round;stroke-linejoin:round"></line><path d="M210.84,328a1.43,1.43,0,1,0-1.92,1.26C209.63,329.5,210.49,328.94,210.84,328Z" style="fill:none;stroke:#263238;stroke-miterlimit:10"></path><line x1="209.95" y1="326.42" x2="211.32" y2="322.66" style="fill:none;stroke:#263238;stroke-linecap:round;stroke-linejoin:round"></line><path d="M212.9,322.35a1.66,1.66,0,0,0-.66-2.2c-.71-.26-1.57.3-1.92,1.26a1.43,1.43,0,1,0,2.58.94Z" style="fill:none;stroke:#263238;stroke-miterlimit:10"></path><line x1="212.01" y1="320.78" x2="213.38" y2="317.03" style="fill:none;stroke:#263238;stroke-linecap:round;stroke-linejoin:round"></line><path d="M215,316.71A1.43,1.43,0,1,0,213,318C213.75,318.23,214.61,317.67,215,316.71Z" style="fill:none;stroke:#263238;stroke-miterlimit:10"></path><line x1="214.07" y1="315.15" x2="215.44" y2="311.39" style="fill:none;stroke:#263238;stroke-linecap:round;stroke-linejoin:round"></line><path d="M217,311.08a1.43,1.43,0,1,0-1.92,1.25A1.66,1.66,0,0,0,217,311.08Z" style="fill:none;stroke:#263238;stroke-miterlimit:10"></path><line x1="216.13" y1="309.51" x2="217.5" y2="305.75" style="fill:none;stroke:#263238;stroke-linecap:round;stroke-linejoin:round"></line><path d="M219.08,305.44a1.43,1.43,0,1,0-1.92,1.25A1.65,1.65,0,0,0,219.08,305.44Z" style="fill:none;stroke:#263238;stroke-miterlimit:10"></path><line x1="218.19" y1="303.88" x2="219.56" y2="300.12" style="fill:none;stroke:#263238;stroke-linecap:round;stroke-linejoin:round"></line><path d="M221.14,299.81a1.44,1.44,0,1,0-1.92,1.25A1.66,1.66,0,0,0,221.14,299.81Z" style="fill:none;stroke:#263238;stroke-miterlimit:10"></path><line x1="220.25" y1="298.24" x2="221.62" y2="294.48" style="fill:none;stroke:#263238;stroke-linecap:round;stroke-linejoin:round"></line><path d="M223.2,294.17a1.43,1.43,0,1,0-1.92,1.25A1.66,1.66,0,0,0,223.2,294.17Z" style="fill:none;stroke:#263238;stroke-miterlimit:10"></path><line x1="222.31" y1="292.61" x2="223.68" y2="288.85" style="fill:none;stroke:#263238;stroke-linecap:round;stroke-linejoin:round"></line><path d="M225.26,288.54a1.44,1.44,0,1,0-1.92,1.25A1.66,1.66,0,0,0,225.26,288.54Z" style="fill:none;stroke:#263238;stroke-miterlimit:10"></path><line x1="224.36" y1="286.97" x2="225.74" y2="283.21" style="fill:none;stroke:#263238;stroke-linecap:round;stroke-linejoin:round"></line><path d="M227.32,282.9a1.65,1.65,0,0,0-.67-2.19c-.71-.27-1.57.3-1.92,1.25a1.43,1.43,0,1,0,2.59.94Z" style="fill:none;stroke:#263238;stroke-miterlimit:10"></path><line x1="226.42" y1="281.33" x2="227.8" y2="277.58" style="fill:none;stroke:#263238;stroke-linecap:round;stroke-linejoin:round"></line><path d="M229.38,277.27a1.44,1.44,0,1,0-1.93,1.25A1.66,1.66,0,0,0,229.38,277.27Z" style="fill:none;stroke:#263238;stroke-miterlimit:10"></path><line x1="228.48" y1="275.7" x2="229.86" y2="271.94" style="fill:none;stroke:#263238;stroke-linecap:round;stroke-linejoin:round"></line><path d="M231.43,271.63a1.66,1.66,0,0,0-.66-2.2c-.71-.26-1.57.3-1.92,1.26a1.43,1.43,0,1,0,2.58.94Z" style="fill:none;stroke:#263238;stroke-miterlimit:10"></path><line x1="230.54" y1="270.06" x2="231.92" y2="266.31" style="fill:none;stroke:#263238;stroke-linecap:round;stroke-linejoin:round"></line><path d="M233.49,266a1.64,1.64,0,0,0-.66-2.19,1.92,1.92,0,1,0,.66,2.19Z" style="fill:none;stroke:#263238;stroke-miterlimit:10"></path><line x1="232.6" y1="264.43" x2="233.98" y2="260.67" style="fill:none;stroke:#263238;stroke-linecap:round;stroke-linejoin:round"></line><path d="M235.55,260.36a1.43,1.43,0,1,0-1.92,1.25A1.66,1.66,0,0,0,235.55,260.36Z" style="fill:none;stroke:#263238;stroke-miterlimit:10"></path><line x1="234.66" y1="258.79" x2="236.03" y2="255.03" style="fill:none;stroke:#263238;stroke-linecap:round;stroke-linejoin:round"></line><path d="M237.61,254.72a1.43,1.43,0,1,0-1.92,1.25A1.65,1.65,0,0,0,237.61,254.72Z" style="fill:none;stroke:#263238;stroke-miterlimit:10"></path><line x1="236.72" y1="253.16" x2="238.09" y2="249.4" style="fill:none;stroke:#263238;stroke-linecap:round;stroke-linejoin:round"></line><path d="M239.67,249.09a1.43,1.43,0,1,0-1.92,1.25A1.66,1.66,0,0,0,239.67,249.09Z" style="fill:none;stroke:#263238;stroke-miterlimit:10"></path><line x1="238.78" y1="247.52" x2="240.15" y2="243.76" style="fill:none;stroke:#263238;stroke-linecap:round;stroke-linejoin:round"></line><path d="M241.73,243.45a1.43,1.43,0,1,0-1.92,1.25A1.65,1.65,0,0,0,241.73,243.45Z" style="fill:none;stroke:#263238;stroke-miterlimit:10"></path><line x1="240.84" y1="241.89" x2="242.21" y2="238.13" style="fill:none;stroke:#263238;stroke-linecap:round;stroke-linejoin:round"></line><path d="M243.79,237.82a1.43,1.43,0,1,0-1.92,1.25A1.66,1.66,0,0,0,243.79,237.82Z" style="fill:none;stroke:#263238;stroke-miterlimit:10"></path><line x1="242.9" y1="236.25" x2="244.27" y2="232.49" style="fill:none;stroke:#263238;stroke-linecap:round;stroke-linejoin:round"></line><path d="M243.12,337.17c0-1,.62-1.84,1.38-1.84s1.37.82,1.37,1.84-.61,1.83-1.37,1.83S243.12,338.18,243.12,337.17Z" style="fill:none;stroke:#263238;stroke-miterlimit:10"></path><line x1="244.5" y1="336" x2="244.5" y2="332" style="fill:none;stroke:#263238;stroke-linecap:round;stroke-linejoin:round"></line><path d="M243.12,331.17c0-1,.62-1.84,1.38-1.84s1.37.82,1.37,1.84-.61,1.83-1.37,1.83S243.12,332.18,243.12,331.17Z" style="fill:none;stroke:#263238;stroke-miterlimit:10"></path><line x1="244.5" y1="330" x2="244.5" y2="326" style="fill:none;stroke:#263238;stroke-linecap:round;stroke-linejoin:round"></line><path d="M243.12,325.17c0-1,.62-1.84,1.38-1.84s1.37.82,1.37,1.84-.61,1.83-1.37,1.83S243.12,326.18,243.12,325.17Z" style="fill:none;stroke:#263238;stroke-miterlimit:10"></path><line x1="244.5" y1="324" x2="244.5" y2="320" style="fill:none;stroke:#263238;stroke-linecap:round;stroke-linejoin:round"></line><path d="M243.12,319.17c0-1,.62-1.84,1.38-1.84s1.37.82,1.37,1.84-.61,1.83-1.37,1.83S243.12,320.18,243.12,319.17Z" style="fill:none;stroke:#263238;stroke-miterlimit:10"></path><line x1="244.5" y1="318" x2="244.5" y2="314" style="fill:none;stroke:#263238;stroke-linecap:round;stroke-linejoin:round"></line><path d="M243.12,313.17c0-1,.62-1.84,1.38-1.84s1.37.82,1.37,1.84-.61,1.83-1.37,1.83S243.12,314.18,243.12,313.17Z" style="fill:none;stroke:#263238;stroke-miterlimit:10"></path><line x1="244.5" y1="312" x2="244.5" y2="308" style="fill:none;stroke:#263238;stroke-linecap:round;stroke-linejoin:round"></line><path d="M243.12,307.17c0-1,.62-1.84,1.38-1.84s1.37.82,1.37,1.84-.61,1.83-1.37,1.83S243.12,308.18,243.12,307.17Z" style="fill:none;stroke:#263238;stroke-miterlimit:10"></path><line x1="244.5" y1="306" x2="244.5" y2="302" style="fill:none;stroke:#263238;stroke-linecap:round;stroke-linejoin:round"></line><path d="M243.12,301.17c0-1,.62-1.84,1.38-1.84s1.37.82,1.37,1.84-.61,1.83-1.37,1.83S243.12,302.18,243.12,301.17Z" style="fill:none;stroke:#263238;stroke-miterlimit:10"></path><line x1="244.5" y1="300" x2="244.5" y2="296" style="fill:none;stroke:#263238;stroke-linecap:round;stroke-linejoin:round"></line><path d="M243.12,295.17c0-1,.62-1.84,1.38-1.84s1.37.82,1.37,1.84-.61,1.83-1.37,1.83S243.12,296.18,243.12,295.17Z" style="fill:none;stroke:#263238;stroke-miterlimit:10"></path><line x1="244.5" y1="294" x2="244.5" y2="290" style="fill:none;stroke:#263238;stroke-linecap:round;stroke-linejoin:round"></line><path d="M243.12,289.17c0-1,.62-1.84,1.38-1.84s1.37.82,1.37,1.84-.61,1.83-1.37,1.83S243.12,290.18,243.12,289.17Z" style="fill:none;stroke:#263238;stroke-miterlimit:10"></path><line x1="244.5" y1="288" x2="244.5" y2="284" style="fill:none;stroke:#263238;stroke-linecap:round;stroke-linejoin:round"></line><path d="M243.12,283.17c0-1,.62-1.84,1.38-1.84s1.37.82,1.37,1.84-.61,1.83-1.37,1.83S243.12,284.18,243.12,283.17Z" style="fill:none;stroke:#263238;stroke-miterlimit:10"></path><line x1="244.5" y1="282" x2="244.5" y2="278" style="fill:none;stroke:#263238;stroke-linecap:round;stroke-linejoin:round"></line><path d="M243.12,277.17c0-1,.62-1.84,1.38-1.84s1.37.82,1.37,1.84-.61,1.83-1.37,1.83S243.12,278.18,243.12,277.17Z" style="fill:none;stroke:#263238;stroke-miterlimit:10"></path><line x1="244.5" y1="276" x2="244.5" y2="272" style="fill:none;stroke:#263238;stroke-linecap:round;stroke-linejoin:round"></line><path d="M243.12,271.17c0-1,.62-1.84,1.38-1.84s1.37.82,1.37,1.84-.61,1.83-1.37,1.83S243.12,272.18,243.12,271.17Z" style="fill:none;stroke:#263238;stroke-miterlimit:10"></path><line x1="244.5" y1="270" x2="244.5" y2="266" style="fill:none;stroke:#263238;stroke-linecap:round;stroke-linejoin:round"></line><path d="M243.12,265.17c0-1,.62-1.84,1.38-1.84s1.37.82,1.37,1.84-.61,1.83-1.37,1.83S243.12,266.18,243.12,265.17Z" style="fill:none;stroke:#263238;stroke-miterlimit:10"></path><line x1="244.5" y1="264" x2="244.5" y2="260" style="fill:none;stroke:#263238;stroke-linecap:round;stroke-linejoin:round"></line><path d="M243.12,259.17c0-1,.62-1.84,1.38-1.84s1.37.82,1.37,1.84-.61,1.83-1.37,1.83S243.12,260.18,243.12,259.17Z" style="fill:none;stroke:#263238;stroke-miterlimit:10"></path><line x1="244.5" y1="258" x2="244.5" y2="254" style="fill:none;stroke:#263238;stroke-linecap:round;stroke-linejoin:round"></line><path d="M243.12,253.17c0-1,.62-1.84,1.38-1.84s1.37.82,1.37,1.84-.61,1.83-1.37,1.83S243.12,254.18,243.12,253.17Z" style="fill:none;stroke:#263238;stroke-miterlimit:10"></path><line x1="244.5" y1="252" x2="244.5" y2="248" style="fill:none;stroke:#263238;stroke-linecap:round;stroke-linejoin:round"></line><path d="M243.12,247.17c0-1,.62-1.84,1.38-1.84s1.37.82,1.37,1.84-.61,1.83-1.37,1.83S243.12,248.18,243.12,247.17Z" style="fill:none;stroke:#263238;stroke-miterlimit:10"></path><line x1="244.5" y1="246" x2="244.5" y2="242" style="fill:none;stroke:#263238;stroke-linecap:round;stroke-linejoin:round"></line><path d="M243.12,241.17c0-1,.62-1.84,1.38-1.84s1.37.82,1.37,1.84-.61,1.83-1.37,1.83S243.12,242.18,243.12,241.17Z" style="fill:none;stroke:#263238;stroke-miterlimit:10"></path><line x1="244.5" y1="240" x2="244.5" y2="236" style="fill:none;stroke:#263238;stroke-linecap:round;stroke-linejoin:round"></line><path d="M243.12,235.17c0-1,.62-1.84,1.38-1.84s1.37.82,1.37,1.84-.61,1.83-1.37,1.83S243.12,236.18,243.12,235.17Z" style="fill:none;stroke:#263238;stroke-miterlimit:10"></path><line x1="244.5" y1="234" x2="244.5" y2="230" style="fill:none;stroke:#263238;stroke-linecap:round;stroke-linejoin:round"></line><path d="M243.12,229.17c0-1,.62-1.84,1.38-1.84s1.37.82,1.37,1.84-.61,1.83-1.37,1.83S243.12,230.18,243.12,229.17Z" style="fill:none;stroke:#263238;stroke-miterlimit:10"></path><line x1="244.5" y1="228" x2="244.5" y2="224" style="fill:none;stroke:#263238;stroke-linecap:round;stroke-linejoin:round"></line><path d="M203.3,333c0,3,18.45,7.62,41.2,7.62S285.7,336,285.7,333Z" style="fill:#39506D"></path><path d="M285.7,333c0,3-18.45,7.62-41.2,7.62S203.3,336,203.3,333Z" style="opacity:0.2;isolation:isolate"></path><path d="M328.68,207.9l3.89.19c.61,0,1.33.09,2.12.17l2.53.26c.92.07,1.84.25,2.84.4s2,.28,3.11.54l3.35.71,3.54,1c1.21.35,2.43.76,3.69,1.15s2.5.91,3.78,1.38c2.53,1,5.11,2.11,7.66,3.34s5.09,2.53,7.61,3.83,5,2.58,7.47,3.74a46,46,0,0,0,7.35,2.75,38.08,38.08,0,0,0,7.19,1.28,32.35,32.35,0,0,0,6.5-.12c.5-.06,1-.17,1.44-.25l.7-.12.66-.18,1.27-.35,1.16-.44c.19-.07.37-.13.55-.21l.51-.25.95-.48c.59-.35,1.1-.71,1.58-1l1.14-1a7.84,7.84,0,0,0,.77-.8l.62-.69,2.06,1.54-.7.86a9.85,9.85,0,0,1-.88,1l-1.33,1.23c-.55.38-1.14.84-1.82,1.28l-1.1.61-.58.32c-.2.1-.42.18-.63.27l-1.32.56c-.46.16-.94.3-1.43.46l-.75.23-.78.18c-.52.11-1.06.25-1.61.34a35.4,35.4,0,0,1-7.18.42,41.32,41.32,0,0,1-7.9-1.07,50.1,50.1,0,0,1-8.07-2.65c-2.62-1.11-5.22-2.31-7.78-3.51s-5.1-2.39-7.62-3.46-5-2-7.46-2.9c-1.23-.39-2.43-.79-3.61-1.15s-2.36-.66-3.5-.95l-3.34-.74-3.15-.54c-1-.2-2-.26-2.91-.38s-1.8-.25-2.61-.27l-2.28-.14c-.7-.05-1.34-.09-2-.08l-3.89,0Z" style="fill:#39506D"></path><path d="M329.54,207.9l-3.89.19c-.6,0-1.32.09-2.11.17l-2.54.26c-.91.07-1.84.25-2.83.4s-2,.28-3.11.54l-3.35.71-3.55,1c-1.2.35-2.43.76-3.68,1.15s-2.5.91-3.78,1.38c-2.53,1-5.12,2.11-7.66,3.34s-5.1,2.53-7.62,3.83-5,2.58-7.47,3.74a45.6,45.6,0,0,1-7.35,2.75,37.8,37.8,0,0,1-7.19,1.28,32.25,32.25,0,0,1-6.49-.12c-.5-.06-1-.17-1.45-.25l-.7-.12-.66-.18-1.27-.35-1.16-.44c-.18-.07-.37-.13-.55-.21l-.5-.25-1-.48c-.58-.35-1.09-.71-1.57-1l-1.15-1a7.62,7.62,0,0,1-.76-.8l-.62-.69-2.07,1.54.71.86a9.85,9.85,0,0,0,.88,1l1.32,1.23c.55.38,1.15.84,1.82,1.28l1.1.61.59.32c.2.1.41.18.62.27l1.32.56c.46.16.95.3,1.44.46l.75.23.77.18c.53.11,1.07.25,1.62.34a35.26,35.26,0,0,0,7.17.42,41.22,41.22,0,0,0,7.9-1.07,50.1,50.1,0,0,0,8.07-2.65c2.63-1.11,5.22-2.31,7.79-3.51s5.1-2.39,7.62-3.46,5-2,7.45-2.9c1.23-.39,2.43-.79,3.62-1.15s2.36-.66,3.5-.95l3.33-.74L316,215c1-.2,2-.26,2.91-.38s1.81-.25,2.62-.27l2.28-.14c.7-.05,1.34-.09,2-.08l3.89,0Z" style="fill:#39506D"></path><path d="M328.68,207.9l3.89.19c.61,0,1.33.09,2.12.17l2.53.26c.92.07,1.84.25,2.84.4s2,.28,3.11.54l3.35.71,3.54,1c1.21.35,2.43.76,3.69,1.15s2.5.91,3.78,1.38c2.53,1,5.11,2.11,7.66,3.34s5.09,2.53,7.61,3.83,5,2.58,7.47,3.74a46,46,0,0,0,7.35,2.75,38.08,38.08,0,0,0,7.19,1.28,32.35,32.35,0,0,0,6.5-.12c.5-.06,1-.17,1.44-.25l.7-.12.66-.18,1.27-.35,1.16-.44c.19-.07.37-.13.55-.21l.51-.25.95-.48c.59-.35,1.1-.71,1.58-1l1.14-1a7.84,7.84,0,0,0,.77-.8l.62-.69,2.06,1.54-.7.86a9.85,9.85,0,0,1-.88,1l-1.33,1.23c-.55.38-1.14.84-1.82,1.28l-1.1.61-.58.32c-.2.1-.42.18-.63.27l-1.32.56c-.46.16-.94.3-1.43.46l-.75.23-.78.18c-.52.11-1.06.25-1.61.34a35.4,35.4,0,0,1-7.18.42,41.32,41.32,0,0,1-7.9-1.07,50.1,50.1,0,0,1-8.07-2.65c-2.62-1.11-5.22-2.31-7.78-3.51s-5.1-2.39-7.62-3.46-5-2-7.46-2.9c-1.23-.39-2.43-.79-3.61-1.15s-2.36-.66-3.5-.95l-3.34-.74-3.15-.54c-1-.2-2-.26-2.91-.38s-1.8-.25-2.61-.27l-2.28-.14c-.7-.05-1.34-.09-2-.08l-3.89,0Z" style="fill:#fff;opacity:0.1;isolation:isolate"></path><path d="M329.54,207.9l-3.89.19c-.6,0-1.32.09-2.11.17l-2.54.26c-.91.07-1.84.25-2.83.4s-2,.28-3.11.54l-3.35.71-3.55,1c-1.2.35-2.43.76-3.68,1.15s-2.5.91-3.78,1.38c-2.53,1-5.12,2.11-7.66,3.34s-5.1,2.53-7.62,3.83-5,2.58-7.47,3.74a45.6,45.6,0,0,1-7.35,2.75,37.8,37.8,0,0,1-7.19,1.28,32.25,32.25,0,0,1-6.49-.12c-.5-.06-1-.17-1.45-.25l-.7-.12-.66-.18-1.27-.35-1.16-.44c-.18-.07-.37-.13-.55-.21l-.5-.25-1-.48c-.58-.35-1.09-.71-1.57-1l-1.15-1a7.62,7.62,0,0,1-.76-.8l-.62-.69-2.07,1.54.71.86a9.85,9.85,0,0,0,.88,1l1.32,1.23c.55.38,1.15.84,1.82,1.28l1.1.61.59.32c.2.1.41.18.62.27l1.32.56c.46.16.95.3,1.44.46l.75.23.77.18c.53.11,1.07.25,1.62.34a35.26,35.26,0,0,0,7.17.42,41.22,41.22,0,0,0,7.9-1.07,50.1,50.1,0,0,0,8.07-2.65c2.63-1.11,5.22-2.31,7.79-3.51s5.1-2.39,7.62-3.46,5-2,7.45-2.9c1.23-.39,2.43-.79,3.62-1.15s2.36-.66,3.5-.95l3.33-.74L316,215c1-.2,2-.26,2.91-.38s1.81-.25,2.62-.27l2.28-.14c.7-.05,1.34-.09,2-.08l3.89,0Z" style="fill:#fff;opacity:0.1;isolation:isolate"></path><circle cx="413.27" cy="223.48" r="2.58" style="fill:#39506D"></circle><path d="M244.12,220.9a2.58,2.58,0,1,0,2.57,2.58A2.58,2.58,0,0,0,244.12,220.9Z" style="fill:#39506D"></path><path d="M336.8,203a8,8,0,0,0-16,0,7.28,7.28,0,0,0,1.62,4.58l.68,15.4h11.37l.68-15.4A7.23,7.23,0,0,0,336.8,203Z" style="fill:#39506D"></path><path d="M322.44,208.16h12.73a7.45,7.45,0,0,0,1.63-4.65,8,8,0,1,0-16,0,7.5,7.5,0,0,0,1.62,4.65Z" style="fill:#fff;opacity:0.1;isolation:isolate"></path></g></svg>